<?xml version="1.0" encoding="UTF-8"?>
<svg id="Camada_1" data-name="Camada 1" xmlns="http://www.w3.org/2000/svg" viewBox="0 0 290 320">
  <defs>
    <style>
      .cls-1 {
        fill: #f9edc6;
      }

      .cls-1, .cls-2, .cls-3, .cls-4 {
        stroke-width: 0px;
      }

      .cls-2 {
        fill: #603f34;
      }

      .cls-3 {
        fill: #fae17a;
      }

      .cls-4 {
        fill: #fff;
      }
    </style>
  </defs>
  <circle class="cls-3" cx="150.11" cy="107.33" r="54.92"/>
  <g>
    <g>
      <path class="cls-2" d="M54.51,224.55c-3.91-2.52-5.87-6.8-5.87-12.88,0-2.75.58-5.24,1.71-7.44,1.45-2.66,3.65-4.57,6.57-5.76,1.71-.67,3.5-1.01,5.35-1.01,2.52,0,4.66.81,6.42,2.46,1.16,1.19,1.74,2.58,1.74,4.2,0,.95-.38,1.79-1.13,2.49-.67.55-1.39.81-2.17.81-.87,0-1.65-.32-2.31-.96-.67-.67-.98-1.48-.98-2.37,0-.84.29-1.59.9-2.26.38-.35.67-.58.93-.67.38-.17.58-.26.67-.26-.72-.2-1.42-.32-2.08-.32-1.39,0-2.75.38-4.11,1.1-1.62.95-2.75,2.29-3.41,3.99-.41,1.01-.61,2.11-.61,3.27v6.02c0,1.94.58,3.7,1.76,5.3.67.9,1.39,1.56,2.2,2.03,1.19.78,2.46,1.19,3.82,1.19,1.16,0,2.2-.35,3.1-1.01.72-.61,1.27-1.39,1.68-2.34h1.76c-.43,1.65-1.3,2.98-2.63,4.05-1.88,1.5-4.14,2.26-6.77,2.26-2.31,0-4.49-.64-6.51-1.88Z"/>
      <path class="cls-2" d="M73.93,223.88c-2.29-2.08-3.41-4.6-3.41-7.58,0-1.94.52-3.76,1.59-5.47.98-1.56,2.34-2.78,4.05-3.65,1.36-.67,2.84-1.01,4.46-1.01,1.24,0,2.46.23,3.68.67,2.06.84,3.7,2.2,4.89,4.08,1.01,1.68,1.53,3.47,1.53,5.38s-.52,3.7-1.53,5.38c-1.24,1.91-2.89,3.27-4.98,4.08-1.16.43-2.37.67-3.62.67-2.46,0-4.66-.84-6.66-2.55ZM82.49,222.46c.72-1.53,1.1-3.59,1.1-6.16,0-2.08-.26-3.94-.81-5.56-.61-1.68-1.33-2.52-2.17-2.52-1.04,0-1.88,1.19-2.49,3.59-.32,1.39-.49,2.89-.49,4.49,0,1.94.23,3.7.72,5.27.61,1.79,1.36,2.69,2.26,2.69.7,0,1.33-.61,1.88-1.79Z"/>
      <path class="cls-2" d="M94.15,224.84c-1.19-1.16-1.76-2.58-1.76-4.25v-23.15h3.62c.72,0,1.42.23,2.08.69.95.72,1.42,1.71,1.42,3.01v19.65c0,.87.17,1.56.52,2.05.26.35.64.52,1.1.52,1.1,0,2.14-1.27,3.1-3.79h1.33c-.72,2-1.62,3.59-2.75,4.75-1.45,1.42-3.01,2.11-4.69,2.11-1.48,0-2.81-.52-3.96-1.59Z"/>
      <path class="cls-2" d="M128.94,226.43c-.81,0-1.56-.29-2.26-.84-.64-.61-1.04-1.27-1.19-2-.03-.26-.06-4.11-.06-11.57,0-1.91-.55-2.86-1.62-2.86-.78,0-1.53.67-2.31,2,.03.2.03,5.3.03,15.28h-3.59c-.84,0-1.59-.29-2.29-.87-.81-.78-1.22-1.65-1.22-2.66v-11.05c0-1.79-.55-2.69-1.62-2.69-.78,0-1.53.64-2.26,1.91v15.37h-7.12v-20.26h3.62c.7,0,1.36.23,2.03.67.46.32.81.72,1.01,1.16.2.38.35.69.38.96.55-.72,1.16-1.3,1.79-1.68,1.07-.72,2.26-1.1,3.53-1.1,1.51,0,2.84.52,3.96,1.53.55.55.96,1.07,1.22,1.62.03.09.06.15.09.17,1.53-2.23,3.44-3.33,5.73-3.33,1.48,0,2.81.49,3.93,1.5,1.19,1.16,1.79,2.55,1.79,4.17v14.58h-3.59Z"/>
      <path class="cls-2" d="M137.19,223.39c-2.05-2.05-3.07-4.43-3.07-7.18,0-1.68.32-3.21.98-4.63,1.07-2.17,2.78-3.73,5.12-4.69,1.24-.49,2.55-.72,3.85-.72,2.17,0,3.99.61,5.44,1.85,1.27,1.16,1.91,2.6,1.91,4.34,0,1.48-.69,2.87-2.11,4.17-1.71,1.36-3.68,2.03-5.9,2.03-.67,0-1.33-.06-2.03-.17,0,.15.06.55.14,1.24.23,1.07.58,1.94,1.01,2.63.95,1.33,2.43,2,4.37,2,1.48,0,2.92-.55,4.28-1.65.98-.9,1.77-1.91,2.34-3.04h1.27l-.03.03c-.87,2.2-2.31,3.94-4.31,5.21-1.71,1.07-3.62,1.62-5.67,1.62-2.92,0-5.44-1.01-7.61-3.04ZM143.96,216.36c.81-.75,1.33-1.59,1.56-2.55.09-.38.12-1.36.12-2.92,0-1.94-.49-2.92-1.45-2.92-.67,0-1.3.49-1.94,1.5-.58.9-.9,2.29-.96,4.17v2.69c0,.67.26.98.78.98.46,0,1.1-.32,1.88-.95Z"/>
      <path class="cls-2" d="M167.4,226.43c-.78,0-1.53-.26-2.23-.81-.38-.38-.67-.72-.87-1.07-.26-.52-.41-1.13-.41-1.82v-11.05c0-.84-.17-1.53-.55-2.03-.29-.32-.64-.49-1.07-.49s-.84.17-1.19.49c-.46.43-.81.93-1.07,1.42v15.37h-7.12v-20.26h3.62c.69,0,1.36.23,2.03.67.52.38.9.81,1.1,1.3.2.38.29.64.29.81,1.53-1.85,3.3-2.78,5.32-2.78.95,0,1.91.23,2.81.69,1.07.61,1.88,1.45,2.4,2.58.35.72.52,1.56.52,2.49v14.5h-3.59Z"/>
      <path class="cls-2" d="M174.4,225.18c-1.3-1.27-1.94-2.84-1.94-4.66,0-.96.32-1.88.93-2.84,1.24-1.82,3.21-2.98,5.85-3.47,1.85-.46,2.92-1.3,3.24-2.49.06-.2.09-.58.09-1.1,0-.81-.23-1.45-.69-1.88-.49-.43-1.16-.67-2.06-.67-.61,0-1.27.12-2,.32.55.26.98.69,1.3,1.3.26.43.41.87.41,1.36,0,.78-.29,1.5-.84,2.14-.69.72-1.48,1.07-2.37,1.07-.72,0-1.39-.23-1.97-.72-.72-.64-1.07-1.45-1.07-2.43,0-.78.23-1.53.72-2.29.67-.95,1.62-1.65,2.87-2.08.98-.38,2.4-.58,4.25-.58,3.41,0,5.79.87,7.09,2.63.98,1.24,1.48,2.98,1.48,5.15v12.47h-3.56c-.9,0-1.68-.32-2.4-.98-.43-.43-.72-.87-.9-1.3-1.59,1.59-3.24,2.37-4.98,2.37-1.27,0-2.43-.43-3.44-1.33ZM181.38,223.5c.78-1.16,1.19-2.52,1.19-4.08v-5.32c-.26.58-.93,1.22-2.03,1.94-.38.26-.72.52-1.01.78-.87.81-1.3,1.94-1.3,3.41v1.85c0,.84.17,1.53.52,2.08.26.38.55.55.93.55.55,0,1.1-.41,1.71-1.22Z"/>
      <path class="cls-2" d="M192.11,226.43v-20.26h3.47c1.1,0,2.03.41,2.78,1.22,1.13-1.19,2.52-1.77,4.17-1.77,1.3,0,2.52.43,3.65,1.27,1.5,1.19,2.26,2.72,2.26,4.6,0,.98-.23,1.85-.7,2.58-.49.75-1.13,1.27-1.97,1.59-.41.14-.81.23-1.24.23-.93,0-1.74-.35-2.43-1.07-.61-.67-.9-1.42-.9-2.26,0-.95.35-1.82,1.04-2.6.81-.84,1.76-1.24,2.86-1.24-.72-.67-1.59-.98-2.55-.98s-1.82.35-2.55,1.01c-.52.55-.78.95-.78,1.19v12.93c0,1.01-.41,1.91-1.22,2.66-.72.61-1.48.9-2.29.9h-3.62Z"/>
      <path class="cls-2" d="M211.99,223.39c-2.05-2.05-3.07-4.43-3.07-7.18,0-1.68.32-3.21.98-4.63,1.07-2.17,2.78-3.73,5.12-4.69,1.24-.49,2.55-.72,3.85-.72,2.17,0,3.99.61,5.44,1.85,1.27,1.16,1.91,2.6,1.91,4.34,0,1.48-.69,2.87-2.11,4.17-1.71,1.36-3.68,2.03-5.9,2.03-.67,0-1.33-.06-2.03-.17,0,.15.06.55.14,1.24.23,1.07.58,1.94,1.01,2.63.95,1.33,2.43,2,4.37,2,1.48,0,2.92-.55,4.28-1.65.98-.9,1.77-1.91,2.34-3.04h1.27l-.03.03c-.87,2.2-2.31,3.94-4.31,5.21-1.71,1.07-3.62,1.62-5.67,1.62-2.92,0-5.44-1.01-7.61-3.04ZM218.77,216.36c.81-.75,1.33-1.59,1.56-2.55.09-.38.12-1.36.12-2.92,0-1.94-.49-2.92-1.45-2.92-.67,0-1.3.49-1.94,1.5-.58.9-.9,2.29-.96,4.17v2.69c0,.67.26.98.78.98.46,0,1.1-.32,1.88-.95Z"/>
      <path class="cls-2" d="M230.05,225.7c-1.79-.78-2.69-2.03-2.69-3.67,0-.98.29-1.77.87-2.37.49-.43,1.07-.64,1.76-.64s1.24.23,1.79.67c.55.55.84,1.22.84,1.97s-.26,1.33-.78,1.88c-.55.49-1.24.75-2.08.75.46.41,1.04.61,1.74.61.64,0,1.24-.2,1.79-.61.72-.61,1.1-1.39,1.1-2.34,0-.78-.23-1.56-.69-2.34-.38-.67-1.13-1.5-2.23-2.52-1.45-1.3-2.34-2.23-2.69-2.78-.72-1.01-1.07-2.08-1.07-3.21,0-1.33.64-2.46,1.94-3.39,1.53-1.01,3.33-1.53,5.44-1.53,1.39,0,2.63.23,3.73.72.84.41,1.45.87,1.82,1.42.43.61.7,1.19.72,1.74h-1.36s-.06-.06-.09-.2c-.32-.61-.84-1.07-1.62-1.39-.46-.2-.93-.29-1.39-.29-.61,0-1.16.17-1.59.49-.55.43-.81,1.04-.81,1.82s.2,1.5.64,2.29c.43.78,1.22,1.68,2.37,2.69,1.42,1.3,2.34,2.26,2.75,2.87.69,1.01,1.04,2.08,1.04,3.18,0,.84-.26,1.62-.81,2.34-.32.49-.78.9-1.39,1.22-1.42.9-3.18,1.36-5.3,1.36-1.36,0-2.63-.23-3.76-.72Z"/>
    </g>
    <g>
      <path class="cls-2" d="M88.52,265.62c-4.24-2.73-6.38-7.38-6.38-13.98,0-2.98.63-5.69,1.85-8.07,1.57-2.89,3.96-4.96,7.13-6.25,1.85-.72,3.8-1.1,5.81-1.1,2.73,0,5.06.88,6.97,2.67,1.26,1.29,1.88,2.8,1.88,4.55,0,1.04-.41,1.95-1.22,2.7-.72.6-1.51.88-2.36.88-.94,0-1.79-.35-2.51-1.04-.72-.72-1.07-1.6-1.07-2.58,0-.91.31-1.73.97-2.45.41-.38.72-.63,1-.72.41-.19.63-.28.72-.28-.79-.22-1.54-.35-2.26-.35-1.51,0-2.98.41-4.46,1.19-1.76,1.04-2.98,2.48-3.71,4.33-.44,1.1-.66,2.29-.66,3.55v6.53c0,2.1.63,4.02,1.92,5.75.72.97,1.51,1.7,2.39,2.2,1.29.85,2.67,1.29,4.15,1.29,1.26,0,2.39-.38,3.36-1.1.79-.66,1.38-1.51,1.82-2.54h1.92c-.47,1.79-1.41,3.24-2.86,4.4-2.04,1.63-4.49,2.45-7.35,2.45-2.51,0-4.87-.69-7.07-2.04Z"/>
      <path class="cls-2" d="M123.49,267.67c-.91,0-1.73-.31-2.48-.94-.66-.63-1.1-1.35-1.26-2.14-.06-.22-.09-4.49-.09-12.75,0-.85-.16-1.57-.5-2.14-.28-.44-.72-.66-1.26-.66-1.38,0-2.61,1.66-3.64,4.99v13.63h-7.7v-31.41h3.86c.91,0,1.76.31,2.54.97.85.79,1.29,1.79,1.29,2.95v10.27h.03c.44-.85,1.04-1.66,1.79-2.45,1.57-1.54,3.27-2.32,5.09-2.32,1.73,0,3.24.66,4.52,1.98,1.13,1.23,1.7,2.76,1.7,4.55v15.45h-3.9Z"/>
      <path class="cls-2" d="M131.07,266.31c-1.41-1.38-2.1-3.08-2.1-5.06,0-1.04.35-2.04,1.01-3.08,1.35-1.98,3.49-3.24,6.34-3.77,2.01-.5,3.17-1.41,3.52-2.7.06-.22.09-.63.09-1.19,0-.88-.25-1.57-.75-2.04-.53-.47-1.26-.72-2.23-.72-.66,0-1.38.13-2.17.35.6.28,1.07.75,1.41,1.41.28.47.44.94.44,1.48,0,.85-.31,1.63-.91,2.32-.75.79-1.6,1.16-2.58,1.16-.79,0-1.51-.25-2.14-.79-.79-.69-1.16-1.57-1.16-2.64,0-.85.25-1.66.79-2.48.72-1.04,1.76-1.79,3.11-2.26,1.07-.41,2.61-.63,4.62-.63,3.71,0,6.28.94,7.7,2.86,1.07,1.35,1.6,3.24,1.6,5.59v13.54h-3.86c-.97,0-1.82-.35-2.61-1.07-.47-.47-.79-.94-.97-1.41-1.73,1.73-3.52,2.58-5.4,2.58-1.38,0-2.64-.47-3.74-1.44ZM138.64,264.49c.85-1.26,1.29-2.73,1.29-4.43v-5.78c-.28.63-1.01,1.32-2.2,2.1-.41.28-.79.57-1.1.85-.94.88-1.41,2.1-1.41,3.71v2.01c0,.91.19,1.66.57,2.26.28.41.6.6,1,.6.6,0,1.19-.44,1.85-1.32ZM136.37,242.35c-.47-.28-.69-.66-.69-1.13s1.51-2.51,4.52-6.16l1.95,1.95c.35.28.5.6.5.91,0,.22-.09.44-.25.66l-4.55,3.52c-.28.28-.6.41-.88.41-.22,0-.41-.06-.6-.16Z"/>
      <path class="cls-2" d="M153.59,266.38c-.85-.79-1.44-1.88-1.85-3.24l-4.02-17.46c3.49,0,5.21,0,5.21.03.53.09,1.07.28,1.54.6.97.72,1.66,1.6,2.04,2.67.03.16.66,3.08,1.85,8.83.53,2.58.82,3.96.88,4.18.28.91.69,1.35,1.16,1.35.35,0,.97-.6,1.88-1.76,1.85-2.42,3.08-5.21,3.64-8.42-.25.03-.53.06-.82.06-1.1,0-2.07-.44-2.92-1.29-.69-.79-1.04-1.7-1.04-2.67s.38-1.85,1.1-2.58c.72-.72,1.6-1.07,2.58-1.07,1.1,0,2.1.47,3.02,1.41.63.79.94,1.76.94,2.95,0,2.58-.69,5.43-2.04,8.54-2.67,6.09-5.94,9.14-9.8,9.14-1.29,0-2.42-.44-3.36-1.29Z"/>
      <path class="cls-2" d="M172.57,264.37c-2.23-2.23-3.33-4.81-3.33-7.79,0-1.82.35-3.49,1.07-5.03,1.16-2.36,3.02-4.05,5.56-5.09,1.35-.53,2.76-.79,4.18-.79,2.36,0,4.33.66,5.9,2.01,1.38,1.26,2.07,2.83,2.07,4.71,0,1.6-.75,3.11-2.29,4.52-1.85,1.48-3.99,2.2-6.41,2.2-.72,0-1.44-.06-2.2-.19,0,.16.06.6.16,1.35.25,1.16.63,2.1,1.1,2.86,1.04,1.45,2.64,2.17,4.74,2.17,1.6,0,3.17-.6,4.65-1.79,1.07-.97,1.92-2.07,2.55-3.3h1.38l-.03.03c-.94,2.39-2.51,4.27-4.68,5.65-1.85,1.16-3.93,1.76-6.16,1.76-3.17,0-5.9-1.1-8.26-3.3ZM179.92,256.73c.88-.82,1.45-1.73,1.7-2.76.09-.41.13-1.48.13-3.17,0-2.1-.53-3.17-1.57-3.17-.72,0-1.41.53-2.1,1.63-.63.97-.97,2.48-1.04,4.52v2.92c0,.72.28,1.07.85,1.07.5,0,1.19-.35,2.04-1.04Z"/>
      <path class="cls-2" d="M189.01,267.67c1.41-2.73,3.86-7.7,7.38-14.92,1.26-2.48,1.88-3.89,1.88-4.18,0-.35-.16-.63-.5-.79h-2.04c-.88,0-1.6.09-2.17.28.53.22.97.63,1.32,1.22s.53,1.16.53,1.7c0,.85-.28,1.6-.88,2.29-.78.79-1.63,1.16-2.61,1.16-.91,0-1.7-.35-2.39-1.01-.6-.72-.91-1.51-.91-2.39,0-1.04.38-2.01,1.13-2.92.97-1.04,2.2-1.76,3.68-2.1.91-.22,2.2-.35,3.9-.35h10.52c-5.06,10.4-8.29,16.96-9.64,19.66h4.05c.91,0,1.76-.31,2.54-.94.85-.79,1.29-1.66,1.29-2.7,0-.03.6-.03,1.76-.03,0,1.29-.31,2.45-.97,3.52-.47.75-1.04,1.32-1.7,1.66-.82.53-1.79.82-2.89.82h-13.29Z"/>
    </g>
    <g>
      <g>
        <path class="cls-2" d="M158.82,75.01c-1.38-.71-2.77-1.44-4.22-1.97-3.01-1.08-5.72-.35-8.07,1.74-.4.35-.67.45-1.16.16.06-.45.08-.93.18-1.38.69-3.26,2.73-5.46,5.61-6.91,1.1-.55,2.37-.77,3.56-1.16.6-.2,1.21-.42,1.77-.72.16-.08.32-.51.24-.65-.12-.22-.44-.45-.68-.45-.51,0-1.04.09-1.53.22-2.54.72-4.78,2-6.81,3.67-1.67,1.37-2.67,3.16-3.2,5.23-.13.53-.25,1.06-.38,1.65-.28-.12-.48-.18-.65-.28-1.46-.82-3.03-1.4-4.63-1.73-2.63-.54-6.04,1.09-6.28,4.76-.05.77,0,1.55,0,2.48-.51-.19-.95-.34-1.38-.51-2.54-1-5.17-1.34-7.74-.37-1.51.58-2.32.27-3.39-.87-1.9-2-4.06-3.78-6.15-5.6-6.02-5.23-12.21-10.26-18.89-14.64-2.94-1.93-5.97-3.68-9.34-4.77-1.45-.47-2.92-.77-4.46-.69-2.63.15-4.41,1.59-4.91,4.18-.2,1.04-.18,2.16-.06,3.22.43,3.6,1.86,6.83,3.88,9.82,2.25,3.34,5.01,6.18,8.25,8.56.31.17.63.35.94.52-.02.05-.04.1-.06.15-.53-.15-1.07-.31-1.6-.46-.3-.04-.6-.06-.89-.11-2.34-.4-4.68-.8-7.03-1.19-1.97-.33-3.94-.17-5.91-.04-.11-.06-.22-.07-.34-.03-.05,0-.1,0-.16,0-.16.03-.32.06-.48.09-.04,0-.07,0-.11,0v.02c-.27.04-.53.11-.79.2-.89.26-1.74.65-2.46,1.25-1.02.86-1.59,2.13-1.76,3.44-.04.28-.05.56-.06.84,0,.01,0,.02-.01.03-.38,1.48-.23,2.99.33,4.4.54,1.37,1.33,2.63,2.12,3.86.76,1.16,1.59,2.29,2.62,3.23v.15c.09.03.19.07.29.1.08.07.17.15.25.22.14.11.33.16.49.1,3.59,1.94,7.43,3.13,11.44,3.77,2.35.37,4.73.55,7.09.82.73.01,1.47,0,2.2.04.79.05,1.49.31,2.18.74,4.8,3,9.88,5.38,15.45,6.57,2.16.46,4.34.79,6.55.8.38-1.66-.22-3.26-.47-4.94,1.39.86,2.67,1.65,3.94,2.45,1.36.85,2.91.75,4.64.76-.43.52-.69.8-.9,1.11-.87,1.23-1.77,2.45-2.57,3.73-.6.96-.77,2.01-.1,3.05.48.5.96,1,1.43,1.51.47.29.92.61,1.4.87.63.34,1.03.21,1.34-.44.43-.9.82-1.81,1.23-2.72.72-1.62.98-3.31.85-5.07-.1-1.37-.63-2.5-1.83-3.27-.21-.14-.38-.34-.72-.65,1.76.13,3.26.2,4.74-.29,2.89-.97,5.23-2.66,6.95-5.18.15-.21.34-.39.6-.69.1.82.14,1.47.28,2.1.17.78.49.97,1.2.57,1.56-.87,3.39-.47,4.96-1.29.39,3.04,2.15,6.57,4.24,8.49.23-.55.51-1.03.64-1.55.39-1.55.2-3.11-.14-4.64-.44-1.99-1.54-3.46-3.59-4.07-.29-.08-.57-.22-.82-.38-.88-.57-1.74-.46-2.56.07-.57.37-1.1.8-1.61,1.18-.34-1.23-.67-2.42-1.05-3.79.27-.46.65-1.11,1.05-1.81.76.4,1.4.75,2.06,1.07,1.55.74,2.18.61,3.26-.72,1.49-1.85,2.25-4,2.38-6.34.21-3.87-.52-7.49-3.19-10.61.41-.28.8-.52,1.17-.78,3.01-2.15,6.02-2.15,8.95.03.56.41,1.08.88,1.66,1.25.72.45,1.09.33,1.79-.54-.35-.34-.65-.8-1.08-1.02ZM108.15,69.9c.56.36,1.17.67,1.68,1.1,2.8,2.38,5.57,4.79,8.35,7.18.71.61,1.43,1.21,2.25,1.91-.52.31-.95.56-1.53.91-3.28-3.14-6.55-6.27-9.8-9.42-.45-.44-.82-.96-1.22-1.45-.79-.95-1.58-1.91-2.37-2.86.92.84,2.09,1.42,2.64,2.63ZM88.24,74.93c-5.28-4-8.95-9.03-9.91-15.73-.52-3.6,1.53-5.43,5.12-4.7,2.7.55,5.19,1.67,7.59,2.97,3.82,2.07,7.4,4.51,10.78,7.23.73.59,1.42,1.29,1.97,2.06,3.63,5.09,8.01,9.44,12.82,13.4.52.43,1.01.9,1.42,1.58-.26,0-.57.1-.76-.01-2.02-1.17-4.04-2.34-6.01-3.59-.79-.5-1.52-1.15-2.15-1.84-2.83-3.11-5.52-6.35-8.44-9.37-2.43-2.51-5.26-4.54-8.74-5.38-.92-.22-1.88-.33-2.82-.36-.76-.02-1.54.12-2.23.89.36.05.59.13.8.1,2.27-.26,4.4.23,6.41,1.24,2.59,1.3,4.77,3.13,6.76,5.22.2.21.34.48.55.78-.95.49-1.89.63-2.82.41-1.72-.41-3.42-.92-5.12-1.39-1.46-.41-2.9-.87-4.37-1.22-1.08-.25-2.16-.09-3.18.35-.55.24-1.13.49-1.25,1.23.13.03.28.12.36.07,1.84-1.03,3.75-.9,5.66-.27,1.44.48,2.84,1.06,4.29,1.48,1.28.38,2.6.71,3.92.85.87.09,1.79-.14,2.68-.3.44-.08.79-.24,1.17.18,1.75,1.97,3.54,3.91,5.31,5.86l-.11.26c-.69-.07-1.37-.15-2.06-.22-3.14-.35-6.29-.67-9.43-1.06-1.72-.22-3.41-.6-5.13-.82-.61-.08-1.29.03-1.88.23-.47.16-.8.15-1.19-.14ZM117.04,82.85c-.49.52-.85,1.12-1.39,1.4-.48.25-1.16.24-1.73.16-1.45-.21-2.9-.48-4.34-.81-3.67-.84-7.33-1.68-10.97-2.6-.99-.25-1.95-.72-2.84-1.24-1.93-1.13-3.81-2.36-5.82-3.61.25-.1.45-.25.65-.24.9.06,1.8.16,2.7.27,2.83.34,5.67.69,8.5,1.05,1.5.19,3,.39,4.5.6,1.91.27,3.68.94,5.35,1.89,1.76,1.01,3.52,2.04,5.38,3.12ZM131.24,91.67c-8.15,1.87-16.38,3.31-24.66,4.46-4.6.64-9.22,1.01-13.87.9-6.63-.15-12.96-1.56-18.88-4.64-.33-.17-.73-.22-1.09-.32v.26c-.12-.19-.23-.38-.35-.58-.38-.63-.75-1.27-1.12-1.92-.69-1.22-1.41-2.46-1.95-3.76-.11-.26-.21-.54-.3-.82,0-.11,0-.21,0-.32,0-.66.02-1.32.09-1.98.11-1.03.38-2.07.91-2.96.55-.34,1.13-.62,1.73-.84.03,0,.06,0,.09,0,.3-.03.6-.05.9-.1v.28c4.76-.98,9.4-.16,14.01.93,4.54,1.08,9.05,2.33,13.61,3.34,4.22.94,8.47,1.82,12.74,2.45,4.23.63,8.51.91,12.77,1.35.65.07,1.3.12,1.93.26.38.08.72.31.99.69-1.88,0-3.77.03-5.65,0-2.12-.04-4.25-.25-6.37-.17-3.63.14-7.05-.67-10.42-1.85-4.79-1.69-9.67-3.01-14.74-3.51-3.89-.38-7.8-.46-11.6.68-1.48.44-2.88,1.17-4.33,1.7-.96.35-1.96.6-2.94.9v1.04c1.2-.35,2.46-.56,3.57-1.09,3.35-1.59,6.86-2.34,10.56-2.38,5.12-.06,10.07.88,14.95,2.35,1.28.39,2.55.77,3.98,1.2-.38.24-.61.44-.88.56-2.48,1.12-4.96,2.27-7.47,3.33-2.83,1.19-5.76,1.51-8.78.79-.59-.14-1.24-.33-2.03.1,1.18.73,2.35.94,3.51,1.11,2.59.38,5.12.07,7.52-.94,2.99-1.25,5.93-2.64,8.9-3.95.37-.16.86-.36,1.2-.24,3.91,1.31,7.97,1.03,11.98,1.21,3.29.15,6.59.21,9.88.31.19,0,.38.04.58.17-.89.57-1.9.68-2.88.83-4.28.64-8.58,1.2-12.86,1.85-1.97.3-3.91.77-5.87,1.09-1.75.28-3.46.1-5.05-.76-.1-.05-.24-.02-.54-.03.18.33.26.61.44.78.72.7,1.64,1.03,2.6,1.01,1.64-.04,3.32-.02,4.91-.36,3.52-.76,7.09-1.17,10.65-1.69,2.96-.43,5.9-.96,8.84-1.45.57-.1,1.14-.27,1.46.57-.22.07-.43.15-.65.2Z"/>
        <path class="cls-2" d="M82.97,135.04c-.45-1.05-1.02-2.07-1.33-3.16-.38-1.31-.55-2.68-.82-4.02.76.55,1.49,1.16,2.29,1.64,4.55,2.71,9.45,3.79,14.72,3.13.28-.03.68-.15.78-.34.31-.67.72-1.35.65-2.2-.55,0-1.02-.02-1.5,0-3.16.14-6.21-.47-9.22-1.34-2.32-.67-4.43-1.73-6.27-3.31-.49-.42-.97-.85-1.46-1.28.09-1.61.18-3.22.28-4.83.3.17.6.33.89.49,1.35.77,2.66,1.64,4.07,2.28,2.98,1.35,6.15,2.08,9.4,2.44,1.71.19,3.45.32,5.28-.01.09-.72.17-1.43.27-2.21-.43-.04-.77-.06-1.1-.11-1.71-.24-3.45-.38-5.13-.75-4.44-.99-8.43-2.88-11.7-6.12-.3-.3-.53-.66-.79-1,.63-1.55,1.25-3.09,1.88-4.64.51.38,1.03.76,1.54,1.14,4.12,3.04,8.82,4.52,13.85,5.1.07,0,.15-.08.29-.16.15-.65.3-1.35.47-2.08-.42-.12-.71-.2-.99-.29-1.45-.44-2.92-.82-4.34-1.35-3.33-1.23-6.24-3.18-8.96-5.43.94-1.76,2.23-3.25,3.63-4.65.91.58,1.79,1.22,2.74,1.73,7.72,4.2,15.89,6.55,24.78,5.78.5-.04,1.02.04,1.53.07-.29,1.22-.51,2.45-.89,3.64-.47,1.49-1.62,2.18-3.14,2.3-1.62.12-3.2-.05-4.75-.53-.45-.14-.91-.21-1.64-.38.96,1.11,1.78,1.98,2.51,2.92,1.87,2.39,3.74,4.77,5.52,7.22,1.12,1.55,1.91,3.3,2.34,5.18.33,1.41.41,2.83-.06,4.23-.52,1.55-1.5,2.11-3.01,1.5-.85-.34-1.68-.92-2.32-1.59-.9-.92-1.7-1.97-2.41-3.05-3.44-5.3-5.75-11.04-6.75-17.29-.15-.93-.17-1.88-.26-2.86-.62.03-.66.48-.64.82.1,1.68.15,3.37.39,5.03.22,1.58.72,3.12.96,4.71.15.96.19,1.99.01,2.94-.57,3.14-1.9,6.01-3.38,8.81-1.44,2.72-3.02,5.36-5.04,7.7-1.05,1.21-2.17,2.36-3.64,3.1-2.09,1.04-3.8.76-5.14-1.13-1.25-1.75-2.26-3.67-3.38-5.52.2.07.41.12.59.22,2.97,1.63,6.18,2.39,9.54,2.53.33.01.79-.13,1-.38.4-.48.66-1.07,1.08-1.8-4.77.07-9.11-.86-13.2-2.85Z"/>
        <path class="cls-2" d="M105.63,125.69c.44,1.43.94,2.85,1.3,4.3,1.08,4.27,2.15,8.55,3.13,12.85.47,2.08.49,4.23-.13,6.3-.28.93-.71,1.88-1.3,2.65-1.82,2.4-5.04,2.36-6.89-.02-.81-1.05-1.26-2.25-1.46-3.56-.42-2.67.05-5.28.73-7.83.95-3.55,2.06-7.05,3.1-10.57.4-1.37.8-2.73,1.19-4.1.11,0,.22,0,.33-.01Z"/>
        <path class="cls-2" d="M124.22,115.78c.84,1.04,1.74,2.03,2.51,3.12,1.12,1.6,1.67,3.4,1.48,5.38-.18,1.91-1.63,2.6-3.22,1.51-.45-.31-.88-.71-1.21-1.16-2.33-3.17-2.44-6.66-1.61-10.41.36.12.55.18.75.25.43.44.86.88,1.29,1.32Z"/>
        <path class="cls-2" d="M125.25,127.01c1.27-.35,2.19-.03,2.81,1.08.65,1.17,1.37,2.3,1.97,3.5.84,1.68.66,3.34-.23,4.97-.31.56-.68.98-1.28,1.22-.66.27-1.31.57-2.11.67.16-.2.28-.48.49-.6.96-.56,1.35-1.4,1.39-2.47.02-.56.13-1.12.19-1.65-1.67-1.36-3.26-4.67-3.22-6.72Z"/>
        <path class="cls-2" d="M102.24,153.45c.9.3.87.86.6,1.49-.44,1.02-.9,2.04-1.36,3.06-.05.12-.12.29-.21.31-1.15.32-.87,1.24-.82,2.01.08,1.22.43,2.37,1.26,3.33.1.11.13.28.28.59-.77-.14-1.08-.56-1.37-1.03-.17-.28-.35-.64-.62-.74-.93-.35-1.34-1.08-1.52-1.95-.16-.79-.23-1.62-.21-2.43.03-.82.42-1.56,1.24-1.81,1.28-.4,1.97-1.31,2.47-2.46.05-.11.15-.2.26-.35Z"/>
        <path class="cls-2" d="M116.81,145.02c.06-1.27,1.46-1.49,1.72-2.63.24-1.08.44-2.18,0-3.19-.42-.97-1.09-1.83-1.64-2.74.84-.59,1.33-.62,2.04-.09,2.02,1.5,2.45,4.91.71,6.73-.77.8-1.87,1.29-2.82,1.92Z"/>
        <path class="cls-2" d="M155.84,106.94c-1.86.15-3.37.27-4.88.39.03-1.46.45-1.91,1.8-1.8,1.08.09,2.07.43,3.08,1.41Z"/>
        <path class="cls-1" d="M124.22,115.78c-.43-.44-.86-.88-1.29-1.32.1-.24.2-.49.3-.73.48.5.96,1,1.44,1.51-.15.18-.29.36-.44.55Z"/>
        <path class="cls-1" d="M88.37,78.04c.31.17.63.35.94.52-.02.05-.04.1-.06.15-.53-.15-1.07-.31-1.6-.46.24-.07.48-.14.72-.21Z"/>
        <g>
          <path class="cls-4" d="M130.44,90.9c-2.95.5-5.89,1.02-8.84,1.45-3.56.52-7.12.93-10.65,1.69-1.59.34-3.27.32-4.91.36-.97.02-1.88-.31-2.6-1.01-.18-.17-.26-.45-.44-.78.3.02.44-.02.54.03,1.59.86,3.3,1.04,5.05.76,1.97-.31,3.9-.79,5.87-1.09,4.28-.65,8.58-1.22,12.86-1.85.98-.15,1.99-.26,2.88-.83-.2-.13-.39-.16-.58-.17-3.29-.1-6.59-.16-9.88-.31-4.01-.18-8.07.1-11.98-1.21-.34-.11-.83.08-1.2.24-2.97,1.31-5.9,2.7-8.9,3.95-2.4,1-4.93,1.32-7.52.94-1.16-.17-2.33-.38-3.51-1.11.79-.43,1.44-.24,2.03-.1,3.02.72,5.95.4,8.78-.79,2.51-1.06,4.98-2.21,7.47-3.33.27-.12.5-.31.88-.56-1.42-.43-2.7-.82-3.98-1.2-4.87-1.47-9.83-2.41-14.95-2.35-3.7.04-7.2.78-10.56,2.38-1.02.49-2.17.7-3.28,1.01.29-.48.62-.92,1-1.33.55-.16,1.1-.32,1.64-.52,1.46-.54,2.85-1.26,4.33-1.7,3.8-1.14,7.71-1.06,11.6-.68,5.07.5,9.95,1.82,14.74,3.51,3.37,1.19,6.79,2,10.42,1.85,2.12-.08,4.24.13,6.37.17,1.88.03,3.77,0,5.65,0-.27-.38-.61-.61-.99-.69-.63-.14-1.28-.19-1.93-.26-4.26-.44-8.54-.72-12.77-1.35-4.28-.63-8.52-1.51-12.74-2.45-4.56-1.01-9.06-2.26-13.61-3.34-4.34-1.03-8.7-1.82-13.16-1.09-.11-.1-.27-.13-.43-.11-1.14.18-2.32.41-3.2,1.23-.78.73-1.18,1.78-1.29,2.83-.14,1.27.22,2.56.66,3.74.36.97.77,1.93,1.21,2.86.12.03.21.12.27.24.09.02.18.08.24.16.35.46.75.92,1.17,1.34.1.06.19.12.29.18.47.28.96.54,1.42.85,0-.02.02-.03.02-.05,5.89,3.04,12.18,4.43,18.78,4.59,4.65.11,9.28-.26,13.87-.9,8.28-1.15,16.51-2.58,24.66-4.46.22-.05.44-.13.65-.2-.32-.84-.89-.66-1.46-.57ZM69.57,83.13s.02,0,.03.01c-.06.68.02,1.39.17,2.08-.17-.69-.26-1.41-.2-2.1ZM72.73,91.76c-.12-.11-.23-.25-.32-.39-.28-.46-.52-.95-.76-1.43-.04-.09-.08-.17-.12-.26.02.03.04.06.05.1.27.45.57.89.88,1.31.09.12.18.23.26.36v.32Z"/>
          <path class="cls-4" d="M118.67,109.56c-.51-.03-1.02-.12-1.53-.07-8.89.77-17.05-1.58-24.78-5.78-.95-.51-1.82-1.15-2.74-1.73.88-.85,1.77-1.71,2.65-2.56.74.01,1.47,0,2.2.04.79.05,1.49.31,2.18.74,4.8,3,9.88,5.38,15.45,6.57,2.16.46,4.34.79,6.55.8,0,.67,0,1.33,0,1.99Z"/>
          <path class="cls-4" d="M82.25,114.33c.26.33.49.7.79,1,3.27,3.24,7.27,5.13,11.7,6.12,1.68.38,3.42.51,5.13.75.34.05.67.07,1.1.11-.1.79-.18,1.5-.27,2.21-1.83.34-3.56.21-5.28.01-3.24-.37-6.41-1.09-9.4-2.44-1.41-.64-2.71-1.51-4.07-2.28-.3-.17-.59-.33-.89-.49.24-1.7.42-3.41,1.17-4.99Z"/>
          <path class="cls-4" d="M80.81,124.16c.48.43.97.86,1.46,1.28,1.84,1.58,3.96,2.64,6.27,3.31,3.01.87,6.06,1.48,9.22,1.34.47-.02.95,0,1.5,0,.07.85-.33,1.53-.65,2.2-.09.2-.5.31-.78.34-5.27.66-10.17-.42-14.72-3.13-.8-.48-1.53-1.09-2.29-1.64-.08-.73-.21-1.46-.23-2.19-.01-.5.14-1.01.21-1.51Z"/>
          <path class="cls-4" d="M86.01,106.62c2.72,2.25,5.63,4.2,8.96,5.43,1.42.52,2.89.9,4.34,1.35.28.09.57.17.99.29-.17.74-.32,1.44-.47,2.08-.15.08-.22.17-.29.16-5.03-.58-9.73-2.06-13.85-5.1-.51-.38-1.03-.76-1.54-1.14.62-1.03,1.25-2.05,1.87-3.08Z"/>
          <path class="cls-4" d="M82.97,135.04c4.09,1.99,8.43,2.92,13.2,2.85-.42.73-.68,1.32-1.08,1.8-.2.24-.66.39-1,.38-3.36-.14-6.57-.9-9.54-2.53-.18-.1-.39-.15-.59-.22-.33-.76-.66-1.52-.99-2.27Z"/>
          <path class="cls-4" d="M101.39,69.41c-.95.49-1.89.63-2.82.41-1.72-.41-3.42-.92-5.12-1.39-1.46-.41-2.9-.87-4.37-1.22-1.08-.25-2.16-.09-3.18.35-.55.24-1.13.49-1.25,1.23.13.03.28.12.36.07,1.84-1.03,3.75-.9,5.66-.27,1.44.48,2.84,1.06,4.29,1.48,1.28.38,2.6.71,3.92.85.87.09,1.79-.14,2.68-.3.44-.08.79-.24,1.17.18,1.75,1.97,3.54,3.91,5.31,5.86-.04.09-.07.18-.11.26-.69-.07-1.37-.15-2.06-.22-3.14-.35-6.29-.67-9.43-1.06-1.72-.22-3.41-.6-5.13-.82-.61-.08-1.29.03-1.88.23-.47.16-.8.15-1.19-.14-5.28-4-8.95-9.03-9.91-15.73-.52-3.6,1.53-5.43,5.12-4.7,2.7.55,5.19,1.67,7.59,2.97,3.82,2.07,7.4,4.51,10.78,7.23.73.59,1.42,1.29,1.97,2.06,3.63,5.09,8.01,9.44,12.82,13.4.52.43,1.01.9,1.42,1.58-.26,0-.57.1-.76-.01-2.02-1.17-4.04-2.34-6.01-3.59-.79-.5-1.52-1.15-2.15-1.84-2.83-3.11-5.52-6.35-8.44-9.37-2.43-2.51-5.26-4.54-8.74-5.38-.92-.22-1.88-.33-2.82-.36-.76-.02-1.54.12-2.23.89.36.05.59.13.8.1,2.27-.26,4.4.23,6.41,1.24,2.59,1.3,4.77,3.13,6.76,5.22.2.21.34.48.55.78Z"/>
          <path class="cls-4" d="M117.04,82.85c-.49.52-.85,1.12-1.39,1.4-.48.25-1.16.24-1.73.16-1.45-.21-2.9-.48-4.34-.81-3.67-.84-7.33-1.68-10.97-2.6-.99-.25-1.95-.72-2.84-1.24-1.93-1.13-3.81-2.36-5.81-3.61.25-.1.45-.25.65-.24.9.06,1.8.16,2.7.27,2.83.34,5.67.69,8.5,1.05,1.5.19,3,.39,4.5.6,1.91.27,3.68.94,5.35,1.89,1.76,1.01,3.52,2.04,5.38,3.12Z"/>
        </g>
        <path class="cls-4" d="M108.15,69.9c.56.36,1.17.67,1.68,1.1,2.8,2.38,5.57,4.79,8.35,7.18.71.61,1.43,1.21,2.25,1.91-.52.31-.95.56-1.53.91-3.28-3.14-6.55-6.27-9.8-9.42-.45-.44-.82-.96-1.22-1.45.09-.08.18-.15.27-.23Z"/>
      </g>
      <g>
        <path class="cls-2" d="M217.27,188.78c1.46,1.54,2.85,3.14,4.3,4.69.45-.32.73-.79.87-1.37.21-.91.1-1.93-.09-2.87-.04-.21-.09-.42-.14-.63-.15.27-.3.55-.46.85-.25-.18-.47-.3-.65-.47-.39-.36-.78-.73-1.12-1.13-.88-1.04-1.72-2.12-2.61-3.15-1.91-2.19-3.81-4.38-5.62-6.66-1.96-2.47-3.72-5.04-5.02-7.91-.64-1.4-1.16-2.81-1.15-4.36.02-1.94.08-3.89.16-5.83.05-1.24.2-2.47.25-3.71.12-2.58-.33-5.09-1-7.56-.24-.87.08-1.46.71-1.99.39-.32.8-.62,1.15-.98,2.7-2.73,4.57-5.97,5.77-9.59.58-1.75.75-3.56.45-5.39-.21-1.29.01-2.52.49-3.7.33-.82.76-1.6,1.1-2.41.26-.63.53-1.27.65-1.93.22-1.17-.64-1.92-1.77-1.6-.55.16-1.1.38-1.6.68-1.56.93-3.09,1.94-4.4,3.21-2.06,2.01-4.09,4.06-6.13,6.1-.23.23-.46.47-.69.71l-.14-.11c.24-.66.45-1.33.74-1.97,1.12-2.53,1.9-5.17,2.41-7.89.53-2.82.51-5.68.49-8.54-.01-1.95-.41-3.81-1.06-5.63-.09-.24-.17-.48-.25-.72-.66-2.03-1.74-3.82-3.13-5.41-.41-.46-.95-.82-1.47-1.16-.4-.25-.88-.25-1.31-.03-1.02.51-2,1.09-2.68,2.05-.8,1.13-1.63,2.25-2.38,3.42-2.33,3.63-3.88,7.59-4.84,11.8-.21.94-.42,1.87-.68,2.8-.61,2.25-1.04,4.54-1.27,6.85-.25,2.59-.4,5.19-.59,7.79-.01.16-.05.31-.07.47-.14-.08-.19-.16-.21-.25-.34-1.66-.71-3.31-1.01-4.98-.76-4.24-1.8-8.4-3.12-12.5-.9-2.79-1.79-5.59-2.37-8.47-.02-.12-.06-.24-.1-.37-.29-1.06-.58-2.13-.86-3.14.12-.1.15-.15.19-.16,2.07-.69,3.18-2.23,3.78-4.22.25-.84.08-1.65-.28-2.43-.2-.43-.52-.76-.97-.92-.82-.29-1.65-.18-2.52.04.23.21.4.37.58.54-.32.34-.62.17-.9.1-.53-.14-1.05-.15-1.57.04-1.5.56-2.91,1.3-4.13,2.35-.22.19-.42.4-.75.72-.02-.83.31-1.33.72-1.75.4-.42.85-.79,1.31-1.14.46-.35.97-.63,1.46-.94-1.36.3-2.49.99-3.34,2.08-.89,1.13-.92,2.26-.07,3.42.37.5.82.98,1.32,1.34,1.27.91,2.68,1.4,4.31,1.09.07.29.14.56.21.82.71,2.64,1.38,5.28,2.13,7.9.8,2.79,1.75,5.55,2.5,8.35,1.18,4.42,2.05,8.92,2.72,13.45.24,1.6.33,3.22.46,4.83.03.4-.04.82-.07,1.23-.06,0-.13.02-.19.02-.11-.27-.24-.54-.34-.81-.16-.4-.29-.81-.45-1.21-.84-2.14-1.69-4.28-2.53-6.42-.34-.87-.68-1.74-1.01-2.62-.38-.98-1-1.78-1.9-2.29-.98-.57-2.01-1.06-3.03-1.56-.71-.35-.7-.32-.65-1.14.07-1.06.17-2.12.12-3.18-.04-.85-.18-1.72-.46-2.52-.63-1.78-2.32-2.73-3.96-2.58-1.12.1-2.21.5-3.3.81-.25.07-.48.28-.68.47-.91.84-1.79,1.71-2.73,2.52-.86.75-1.26,1.69-1.37,2.78-.04.35-.01.71-.06,1.06-.08.67.02,1.25.59,1.69.14.1.23.27.32.42.66,1.13,1.64,1.9,2.77,2.51.26.14.51.3.87.51-.58.69-1.06,1.34-1.62,1.91-.44.45-.77.44-1.29.09-.4-.27-.78-.56-1.15-.86-1.49-1.21-3-2.4-4.47-3.64-1.29-1.09-2.53-2.24-3.79-3.38-.2-.18-.36-.4-.5-.56,2.01-2.13,2.89-4.58,2.49-7.4-.23-1.69-1.17-2.94-2.87-3.5-.29-.09-.57-.2-.86-.29-1.72-.5-3.03-.09-4.04,1.39-.72,1.05-1.54,2-2.42,2.91-.85.88-1.33,1.96-1.47,3.18-.08.7.02,1.35.38,1.97,1.04,1.8,3.51,3.05,5.62,2.75.75-.1,1.48-.31,2.24-.47.04.03.11.07.17.11,2.93,2.49,5.85,4.97,8.77,7.47.52.44.99.93,1.47,1.42.5.52.51,1.21.67,1.93-1.13.03-2.16.05-3.19.06-.14,0-.29-.09-.43-.14-.89-.29-1.76-.65-2.67-.85-2.91-.64-5.84-1.23-8.76-1.83-.41-.08-.83-.11-1.24-.16.07.18.18.25.29.29,1.94.66,3.9,1.27,5.92,1.6,2.2.36,4.37.85,6.39,1.83.7.34,1.42.5,2.19.54,1.37.07,2.71.31,3.97.88,1.06.48,2.11.98,3.16,1.47.26.12.5.33,1,.19-1.1-.99-2.25-1.68-3.48-2.44.61-.29,1.06-.1,1.45.15.66.42,1.28.9,1.91,1.36,1.49,1.08,2.96,2.2,4.49,3.23,1.89,1.27,3.68,2.67,5.33,4.25.37.36.7.76,1.04,1.15-.03.03-.05.05-.08.08-.46-.13-.92-.27-1.39-.4l-.04.12c.19.14.38.29.66.5-.41.3-.76.55-1.11.8.26.13.51.26.76.38-.54-.06-1.05-.2-1.52-.42-4.17-2-8.32-4.04-12.49-6.03-1.78-.85-3.57-1.69-5.4-2.41-2.38-.93-4.84-1.61-7.35-2.14-2.53-.54-5.09-.84-7.68-.73-.18,0-.35.05-.54.08,2.58.46,5.13.86,7.65,1.38,2.67.55,5.35,1.15,7.87,2.22,2.19.92,4.35,1.9,6.49,2.94,2.8,1.35,5.56,2.77,8.33,4.19.75.38,1.44.87,2.25,1.36-.92.11-1.71.22-2.51.27-.28.02-.6-.08-.86-.2-2.41-1.12-4.91-2-7.4-2.93-3.6-1.34-7.3-2.22-11.12-2.58-1.92-.18-3.84-.23-5.75-.04-2.18.22-4.3.67-6.27,1.66-3.17,1.6-5.73,3.87-7.48,6.98-.39.7-.61,1.49-.86,2.26-.15.44-.02.84.34,1.16.37.32.72.21,1.13.07.52-.18,1.06-.34,1.6-.42,2.45-.34,4.89-.22,7.33.09,2.81.36,5.63.62,8.47.34.91-.09,1.81-.16,2.72-.23.15-.01.31.02.55.04-.15.12-.2.18-.27.21-4.27,2.13-8.14,4.89-11.86,7.86-.14.11-.28.22-.4.35-.76.78-.78,1.86-.06,2.67.58.65,1.33.89,2.16.95,1.1.07,2.17-.14,3.21-.45,2.67-.8,5.23-1.89,7.76-3.04.98-.45,1.95-.91,2.93-1.37.03.04.07.08.1.13-1.34,1.93-2.11,4.09-2.46,6.39-.18,1.19-.37,2.4.43,3.5.51.7,1.09,1.25,1.96,1.43.83.18,1.66.19,2.47-.06,1.94-.6,3.8-1.37,5.5-2.51,1.2-.8,2.38-1.62,3.55-2.46,1.53-1.1,3.28-1.5,5.11-1.68.2-.02.41.02.6.08.6.2,1.19.41,1.78.65,1.77.73,3.53,1.5,5.32,2.21,2.52,1,5.15,1.45,7.87,1.3,1.36-.07,2.72-.21,4.09-.26,1.54-.05,3.09.02,4.59.45,1.98.57,3.59,1.73,4.92,3.27,1.03,1.18,2,2.41,3.01,3.61,2.04,2.44,4.09,4.88,6.14,7.32.62.74,1.18,1.52,1.84,2.22ZM162.26,125.69c-.09-.85.07-1.67.42-2.44.13-.29.36-.55.6-.76,1.02-.9,2.06-1.78,3.09-2.67.65-.57,2.3-.84,3.11-.4-.34.46-.61.88-.95,1.24-1.09,1.14-2.28,2.17-3.79,2.7-1.22.43-1.7,1.32-1.9,2.49-.03.19-.11.36-.17.54l-.17.02c-.08-.24-.22-.48-.24-.73ZM144.57,121.48c0-1.34.45-2.52,1.27-3.56.31-.4.69-.73,1.02-1.12.52-.61,1.07-1.21,1.53-1.86.94-1.32,1.86-1.53,3.39-.61-.26.13-.43.22-.61.3-.93.4-1.68,1-2.22,1.87-.21.33-.54.59-.8.9-.38.46-.79.91-1.11,1.42-.41.64-.75,1.31-1.1,1.98-.19.38-.32.79-.49,1.18-.08.19-.19.37-.3.56-.53-.25-.59-.65-.59-1.06ZM200.07,112.26c.47,3.63.07,7.22-.95,10.72-1.03,3.55-2.47,6.94-4.24,10.2-.05.09-.11.16-.22.3-.29-.28-.55-.53-.8-.79-.32-.33-.7-.16-1.06-.19-.42-.03-.75.01-1.02.41.21-.65.42-1.29.62-1.94.78-2.54,1.33-5.13,1.8-7.74.53-2.93.93-5.89,1.51-8.8.66-3.31,1.37-6.62,2.39-9.85.08-.24.17-.48.26-.71.02-.06.09-.1.23-.25.51,2.95,1.11,5.78,1.48,8.65ZM185.5,141.15c0-2.63-.09-5.26.04-7.88.1-2.06.42-4.12.73-6.17.63-4.23,1.52-8.41,2.9-12.46.98-2.87,2.16-5.66,3.8-8.24,1.16-1.83,2.54-3.46,4.26-4.79.05-.04.13-.06.29-.12-.13.71-.18,1.37-.36,1.99-.78,2.68-1.2,5.43-1.7,8.16-1.02,5.46-1.92,10.95-3.02,16.4-.81,4-2.23,7.82-4.42,11.3-.4.64-.88,1.23-1.29,1.87-.27.42-.7.43-1.14.58-.03-.24-.07-.44-.07-.63ZM173.42,128.46c1.93.32,3.73.84,4.83,2.6.49.79.96,1.61,1.31,2.47.82,1.98,1.58,3.99,2.35,5.99.56,1.47.8,3.02,1.04,4.58-.67-.26-1.26.14-1.99.18-.78-1.29-1.65-2.62-2.42-4.01-1.19-2.14-2.34-4.3-3.45-6.48-.59-1.17-1.09-2.39-1.59-3.6-.22-.53-.36-1.1-.09-1.74ZM179.06,145.13c-.71-.67-1.53-1.24-2.34-1.79-2.3-1.57-4.48-3.28-6.47-5.23-.63-.62-1.31-1.19-1.95-1.8-.22-.21-.42-.44-.57-.7-.09-.15-.13-.41-.07-.56.22-.5.49-.98.74-1.47.68.08,1.18.38,1.59.78.96.93,1.89,1.89,2.8,2.87.67.72,1.28,1.49,1.92,2.24.25.29.52.54,1.06.59-.07-.23-.09-.42-.19-.56-.33-.47-.68-.94-1.05-1.39-.89-1.07-1.82-2.1-2.69-3.18-.69-.85-1.5-1.49-2.56-1.79-.6-.17-1.03-.52-1.18-1.21,1.23-.75,2.47-1.51,3.76-2.29.19.35.38.76.61,1.14,1,1.64,2.02,3.26,3.02,4.9,1.68,2.76,3.2,5.61,4.56,8.54.29.63.6,1.26.85,1.93-.65-.32-1.33-.5-1.88-1.02ZM185.61,148.56c-.06-.07-.1-.16-.16-.25,1.24-.38,3.55.16,5.32,1.21-.26-.53-1.11-1.09-2.16-1.36-.85-.21-1.71-.36-2.6-.55.17-.44.48-.59.87-.67,1.41-.27,2.82-.54,4.24-.84-1.41.15-2.83.29-4.28.44.43-.62.98-1.07,1.64-1.41,1.67-.87,3.42-1.5,5.33-1.6.24-.01.48-.06.72-.14-2.21-.27-4.17.49-6.15,1.42.3-.38.55-.8.89-1.13,1.77-1.72,3.74-3.2,6.04-4.11,2.25-.89,4.52-.67,6.67.47,1.3.69,1.99,1.9,2.5,3.22.07.19.14.38.22.56,0,.02.04.02.13.06.04-1.78-.65-3.14-2.09-4.1-1.26-.84-2.7-1.11-4.18-1.15-.82-.02-1.65.03-2.58.05.32-.4.6-.74.89-1.08,2.09-2.48,4.49-4.65,6.83-6.89.77-.73,1.52-1.48,2.27-2.23,1.96-1.99,4.12-3.72,6.46-5.24.02-.01.04-.04.08-.07.43-.28.85-.57,1.28-.85-.01.6-.22,1.05-.57,1.44-.31.57-.6,1.15-.94,1.7-.77,1.25-1.14,2.57-.82,4.05.11.49.13,1,.21,1.5.25,1.7-.14,3.29-.64,4.91-1.03,3.35-3,6.1-5.32,8.63-1.97,2.14-4.11,4.11-6.52,5.75-2.4,1.64-5.05,2.14-7.87,1.7-.78-.12-1.55-.46-2.26-.83-1.28-.66-2.45-1.51-3.4-2.62ZM150.24,154.87c-1.74-.02-3.48-.22-5.21-.37-1.66-.14-3.32-.35-4.98-.47-1.16-.08-2.32.07-3.46.36-.12.03-.24.03-.36.05,0-.06-.02-.09,0-.11,1.29-1.87,2.52-3.77,4.27-5.27,2.22-1.9,4.8-2.96,7.63-3.49,2.91-.54,5.83-.43,8.77-.27,3.86.21,7.51,1.24,11.07,2.67.91.37,1.85.68,2.78,1.01.25.09.51.19.76.42-.16.02-.31.05-.47.05-4.17.12-8.34.23-12.5.35-.68.02-1.36.03-2.05.06-3.31.14-6.62.24-9.92.46-1.48.1-2.94.46-4.41.71-.16.03-.31.11-.47.16,0,.03.02.06.03.09.67-.11,1.33-.24,2-.32,2.84-.37,5.69-.42,8.55-.47,3.23-.05,6.47-.05,9.7-.12,2.88-.07,5.76-.21,8.64-.32.56-.02,1.11-.02,1.67,0,.26,0,.52.08.77.13,0,.05,0,.1,0,.16-.23.08-.45.17-.68.23-3.89,1.09-7.78,2.19-11.59,3.56-.98.35-1.99.56-3.04.59-2.5.06-5,.18-7.5.16ZM172.55,158.75c.58-1.49,1.39-2.86,2.36-4.14.11-.14.21-.3.35-.39,1.49-.94,2.85-2.11,4.58-2.63.09-.03.19-.03.36-.06-.33.56-.61,1.05-.9,1.54.04.02.07.05.11.07.3-.44.6-.88.9-1.33.3-.45.62-.85,1.27-.97l.03,1.36s.09,0,.14.01c.05-.32.11-.64.16-.97.08-.57,1.01-1.27,1.55-1.13.13.03.26.15.36.26.42.47.86.93,1.23,1.44.58.76.87,1.64.92,2.6.08,1.57-.26,3.05-.85,4.5-2.01,4.91-7.31,7.67-11.02,7.79-.94.03-1.88.04-2.77-.29-.58-.22-1.17-.5-1.66-.87-.74-.56-1.12-1.35-1.14-2.3-.03-1.11.25-2.16.73-3.15,1.11-2.28,2.77-4.08,4.88-5.48.09-.06.22-.08.41-.14-.56.97-1.09,1.84-1.58,2.74-.48.89-.88,1.81-.96,2.85.18-.45.37-.89.55-1.34ZM163.34,169.97c-.91.77-1.4,1.85-2.26,2.83-.14-.84.41-1.27.58-1.97-.8.59-1.03,1.38-1.31,2.16-.46-.15-.69-.46-.79-.82-.11-.41-.22-.85-.18-1.26.25-2.95,1.05-5.73,2.93-8.07,2.24-2.78,4.82-5.18,8.06-6.77,1.01-.49,2.02-.99,3.07-1.43-1.05.78-1.95,1.68-2.79,2.65-1.07,1.25-1.82,2.67-2.24,4.26-.45,1.72-.2,3.31.97,4.7.08.09.12.2.21.35-1.25.22-2.27.83-3.31,1.39-1.05.56-2.03,1.22-2.94,1.99Z"/>
        <path class="cls-4" d="M141.71,151.27c.67-.11,1.33-.24,2-.32,2.84-.37,5.69-.42,8.55-.47,3.23-.05,6.47-.05,9.7-.12,2.88-.07,5.76-.21,8.64-.32.56-.02,1.11-.02,1.67,0,.26,0,.52.08.77.13,0,.05,0,.1,0,.16-.23.08-.45.17-.68.23-3.89,1.09-7.78,2.19-11.59,3.56-.98.35-1.99.56-3.04.59-2.5.06-5,.18-7.5.16-1.74-.02-3.48-.22-5.21-.37-1.66-.14-3.32-.35-4.98-.47-1.16-.08-2.32.07-3.46.36-.12.03-.24.03-.36.05,0-.06-.02-.09,0-.11,1.29-1.87,2.52-3.77,4.27-5.27,2.22-1.9,4.8-2.96,7.63-3.49,2.91-.54,5.83-.43,8.77-.27,3.86.21,7.51,1.24,11.07,2.67.91.37,1.85.68,2.78,1.01.25.09.51.19.76.42-.16.02-.31.05-.47.05-4.17.12-8.34.23-12.5.35-.68.02-1.36.03-2.05.06-3.31.14-6.62.24-9.92.46-1.48.1-2.94.46-4.41.71-.16.03-.31.11-.47.16,0,.03.02.06.03.09Z"/>
        <path class="cls-4" d="M197.51,101.49c-.13.71-.18,1.37-.36,1.99-.78,2.68-1.2,5.43-1.7,8.16-1.02,5.46-1.92,10.95-3.02,16.4-.81,4-2.23,7.82-4.42,11.3-.4.64-.88,1.23-1.29,1.87-.27.42-.7.43-1.14.58-.03-.24-.07-.44-.07-.63,0-2.63-.09-5.26.04-7.88.1-2.06.42-4.12.73-6.17.63-4.23,1.52-8.41,2.9-12.46.98-2.87,2.16-5.66,3.8-8.24,1.16-1.83,2.54-3.46,4.26-4.79.05-.04.13-.06.29-.12Z"/>
        <path class="cls-4" d="M180.21,151.53c-.33.56-.61,1.05-.9,1.54.04.02.07.05.11.07.3-.44.6-.88.9-1.33.3-.45.62-.85,1.27-.97.01.48.02.92.03,1.36.05,0,.09,0,.14.01.05-.32.11-.64.16-.97.08-.57,1.01-1.27,1.55-1.13.13.03.26.15.36.26.42.47.86.93,1.23,1.44.58.76.87,1.64.92,2.6.08,1.57-.26,3.05-.85,4.5-2.01,4.91-7.31,7.67-11.02,7.79-.94.03-1.88.04-2.77-.29-.58-.22-1.17-.5-1.66-.87-.74-.56-1.12-1.35-1.14-2.3-.03-1.11.25-2.16.73-3.15,1.11-2.28,2.77-4.08,4.88-5.48.09-.06.22-.08.41-.14-.56.97-1.09,1.84-1.58,2.74-.48.89-.88,1.81-.96,2.85.18-.45.37-.89.55-1.34.58-1.49,1.39-2.86,2.36-4.14.11-.14.21-.3.35-.39,1.49-.94,2.85-2.11,4.58-2.63.09-.03.19-.03.36-.06Z"/>
        <path class="cls-4" d="M198.59,103.62c.51,2.95,1.11,5.78,1.48,8.65.47,3.63.07,7.22-.95,10.72-1.03,3.55-2.47,6.94-4.24,10.2-.05.09-.11.16-.22.3-.29-.28-.55-.53-.8-.79-.32-.33-.7-.16-1.06-.19-.42-.03-.75.01-1.02.41.21-.65.42-1.29.62-1.94.78-2.54,1.33-5.13,1.8-7.74.53-2.93.93-5.89,1.51-8.8.66-3.32,1.37-6.62,2.39-9.85.08-.24.17-.48.26-.71.02-.06.09-.1.23-.25Z"/>
        <path class="cls-4" d="M169.6,166.59c-1.25.22-2.27.83-3.31,1.39-1.05.56-2.03,1.22-2.94,1.99-.91.77-1.4,1.85-2.26,2.83-.14-.84.41-1.27.58-1.97-.8.59-1.03,1.38-1.31,2.16-.46-.15-.69-.46-.79-.82-.11-.41-.22-.85-.18-1.26.25-2.95,1.05-5.73,2.93-8.07,2.24-2.78,4.82-5.18,8.06-6.77,1.01-.49,2.02-.99,3.07-1.43-1.05.78-1.95,1.68-2.79,2.65-1.07,1.25-1.82,2.67-2.24,4.26-.45,1.72-.2,3.31.97,4.7.08.09.12.2.21.35Z"/>
        <path class="cls-4" d="M175.79,140.06c-.07-.23-.09-.42-.19-.56-.33-.47-.68-.94-1.05-1.39-.89-1.07-1.82-2.1-2.69-3.18-.69-.85-1.5-1.49-2.56-1.79-.6-.17-1.03-.52-1.18-1.21,1.23-.75,2.47-1.51,3.76-2.29.19.35.38.76.61,1.14,1,1.64,2.02,3.26,3.02,4.9,1.68,2.76,3.2,5.61,4.56,8.54.29.63.6,1.26.85,1.93-.65-.32-1.33-.5-1.88-1.02-.71-.67-1.53-1.24-2.34-1.79-2.3-1.57-4.48-3.28-6.47-5.23-.63-.62-1.31-1.19-1.95-1.8-.22-.21-.42-.44-.57-.7-.09-.15-.13-.41-.07-.56.22-.5.49-.98.74-1.47.68.08,1.18.38,1.59.78.96.93,1.89,1.89,2.8,2.87.67.72,1.28,1.49,1.92,2.24.25.29.52.54,1.06.59Z"/>
        <path class="cls-4" d="M173.42,128.46c1.93.32,3.73.84,4.83,2.6.49.79.96,1.61,1.31,2.47.82,1.98,1.58,3.99,2.35,5.99.56,1.47.8,3.02,1.04,4.58-.67-.26-1.26.14-1.99.18-.78-1.29-1.65-2.62-2.42-4.01-1.19-2.14-2.34-4.3-3.45-6.48-.59-1.17-1.09-2.39-1.59-3.6-.22-.53-.36-1.1-.09-1.74Z"/>
        <path class="cls-4" d="M169.48,119.42c-.34.46-.61.88-.95,1.24-1.09,1.14-2.28,2.17-3.79,2.7-1.22.43-1.7,1.32-1.9,2.49-.03.19-.11.36-.17.54l-.17.02c-.08-.24-.22-.48-.24-.73-.09-.85.07-1.67.42-2.44.13-.29.36-.55.6-.76,1.02-.9,2.06-1.78,3.09-2.67.65-.57,2.3-.84,3.11-.4Z"/>
        <path class="cls-4" d="M151.77,114.33c-.26.13-.43.22-.61.3-.93.4-1.68,1-2.22,1.87-.21.34-.54.59-.8.9-.38.46-.79.91-1.11,1.42-.41.64-.75,1.31-1.1,1.98-.19.38-.32.79-.49,1.18-.08.19-.19.37-.3.56-.53-.25-.59-.65-.59-1.06,0-1.34.45-2.52,1.27-3.56.31-.4.69-.73,1.02-1.12.52-.61,1.07-1.21,1.53-1.86.94-1.32,1.86-1.53,3.39-.61Z"/>
        <path class="cls-4" d="M213.47,122.8c-.39.14-.7.26-1.01.38-.04.04-.06.06-.08.07-2.34,1.52-4.5,3.25-6.46,5.24-.74.76-1.5,1.5-2.27,2.24-2.34,2.24-4.73,4.41-6.83,6.89-.29.34-.56.69-.89,1.08.93-.02,1.76-.07,2.58-.05,1.48.04,2.92.31,4.18,1.15,1.45.96,2.14,2.32,2.09,4.1-.09-.04-.13-.05-.13-.06-.07-.19-.14-.37-.22-.56-.51-1.32-1.2-2.53-2.5-3.22-2.14-1.14-4.41-1.36-6.67-.47-2.3.91-4.27,2.39-6.04,4.11-.34.33-.6.75-.89,1.13,1.98-.94,3.94-1.69,6.15-1.42-.23.07-.47.12-.72.14-1.91.1-3.65.73-5.33,1.6-.66.34-1.21.79-1.64,1.41,1.45-.15,2.86-.3,4.28-.44-1.41.3-2.83.58-4.24.84-.39.07-.7.23-.87.67.89.19,1.76.33,2.6.55,1.05.27,1.9.83,2.16,1.36-1.77-1.05-4.08-1.58-5.32-1.21.06.09.1.18.16.25.95,1.11,2.12,1.96,3.4,2.62.71.37,1.48.7,2.26.83,2.83.45,5.47-.06,7.87-1.7,2.42-1.65,4.55-3.61,6.52-5.75,2.33-2.53,4.3-5.28,5.32-8.63.49-1.61.88-3.21.64-4.91-.07-.5-.1-1.01-.21-1.5-.32-1.48.05-2.8.82-4.05.34-.56.64-1.14.95-1.72,0,0-.01.01-.02.02.05-.16.09-.32.14-.48.04-.14.09-.27.16-.48Z"/>
        <path class="cls-4" d="M213.16,123.78c.05-.17.1-.33.15-.5.04-.14.09-.27.16-.48-.39.14-.7.26-1.01.38.43-.28.85-.57,1.28-.85-.01.61-.22,1.06-.58,1.45Z"/>
      </g>
    </g>
  </g>
</svg>