<?xml version="1.0" encoding="UTF-8"?>
<svg id="Camada_1" data-name="Camada 1" xmlns="http://www.w3.org/2000/svg" viewBox="0 0 516.98 264.8">
  <defs>
    <style>
      .cls-1 {
        fill: #f9edc6;
      }

      .cls-1, .cls-2, .cls-3, .cls-4 {
        stroke-width: 0px;
      }

      .cls-2 {
        fill: #603f34;
      }

      .cls-3 {
        fill: #fae17a;
      }

      .cls-4 {
        fill: #fff;
      }
    </style>
  </defs>
  <circle class="cls-3" cx="128.03" cy="114.93" r="61.78"/>
  <g>
    <g>
      <path class="cls-2" d="M241.5,117.81c-5.03-3.24-7.56-8.75-7.56-16.57,0-3.54.74-6.74,2.2-9.57,1.86-3.43,4.69-5.88,8.45-7.41,2.2-.86,4.51-1.3,6.89-1.3,3.24,0,5.99,1.04,8.26,3.16,1.49,1.53,2.23,3.31,2.23,5.4,0,1.23-.48,2.31-1.45,3.2-.86.71-1.79,1.04-2.79,1.04-1.12,0-2.12-.41-2.98-1.23-.86-.86-1.27-1.9-1.27-3.05,0-1.08.37-2.05,1.15-2.9.48-.45.86-.74,1.19-.86.48-.22.75-.34.86-.34-.93-.26-1.82-.41-2.68-.41-1.79,0-3.54.48-5.29,1.42-2.09,1.23-3.54,2.94-4.39,5.14-.52,1.3-.78,2.72-.78,4.21v7.74c0,2.49.74,4.77,2.27,6.81.86,1.15,1.79,2.01,2.83,2.61,1.53,1.01,3.17,1.53,4.91,1.53,1.49,0,2.83-.45,3.98-1.3.93-.78,1.64-1.79,2.16-3.02h2.27c-.56,2.12-1.67,3.83-3.39,5.21-2.42,1.94-5.32,2.9-8.71,2.9-2.98,0-5.77-.82-8.38-2.42Z"/>
      <path class="cls-2" d="M266.48,116.96c-2.94-2.68-4.39-5.92-4.39-9.76,0-2.49.67-4.84,2.05-7.04,1.27-2.01,3.02-3.57,5.21-4.69,1.75-.86,3.65-1.3,5.73-1.3,1.6,0,3.17.3,4.73.86,2.64,1.08,4.77,2.83,6.29,5.25,1.3,2.16,1.97,4.47,1.97,6.92s-.67,4.77-1.97,6.92c-1.6,2.46-3.72,4.21-6.4,5.25-1.49.56-3.05.86-4.65.86-3.16,0-5.99-1.08-8.56-3.28ZM277.5,115.13c.93-1.97,1.41-4.62,1.41-7.93,0-2.68-.34-5.06-1.04-7.15-.78-2.16-1.71-3.24-2.79-3.24-1.34,0-2.42,1.53-3.2,4.62-.41,1.79-.63,3.72-.63,5.77,0,2.49.3,4.77.93,6.78.78,2.31,1.75,3.46,2.9,3.46.89,0,1.71-.78,2.42-2.31Z"/>
      <path class="cls-2" d="M292.51,118.19c-1.53-1.49-2.27-3.31-2.27-5.47v-29.79h4.65c.93,0,1.82.3,2.68.89,1.23.93,1.82,2.2,1.82,3.87v25.28c0,1.12.22,2.01.67,2.64.34.45.82.67,1.42.67,1.41,0,2.75-1.64,3.98-4.88h1.71c-.93,2.57-2.08,4.62-3.54,6.11-1.86,1.82-3.87,2.72-6.03,2.72-1.9,0-3.61-.67-5.1-2.05Z"/>
      <path class="cls-2" d="M337.27,120.23c-1.04,0-2.01-.37-2.9-1.08-.82-.78-1.34-1.64-1.53-2.57-.04-.34-.08-5.29-.08-14.89,0-2.46-.71-3.69-2.08-3.69-1.01,0-1.97.86-2.98,2.57.04.26.04,6.81.04,19.66h-4.62c-1.08,0-2.05-.37-2.94-1.12-1.04-1.01-1.56-2.12-1.56-3.43v-14.22c0-2.31-.71-3.46-2.08-3.46-1.01,0-1.97.82-2.9,2.46v19.77h-9.16v-26.06h4.65c.89,0,1.75.3,2.61.86.6.41,1.04.93,1.3,1.49.26.48.45.89.48,1.23.71-.93,1.49-1.68,2.31-2.16,1.38-.93,2.9-1.41,4.54-1.41,1.94,0,3.65.67,5.1,1.97.71.71,1.23,1.38,1.56,2.08.04.11.07.19.11.22,1.97-2.87,4.43-4.28,7.37-4.28,1.9,0,3.61.63,5.06,1.94,1.53,1.49,2.31,3.28,2.31,5.36v18.76h-4.62Z"/>
      <path class="cls-2" d="M347.88,116.32c-2.64-2.64-3.95-5.7-3.95-9.23,0-2.16.41-4.13,1.27-5.96,1.38-2.79,3.57-4.8,6.59-6.03,1.6-.63,3.28-.93,4.95-.93,2.79,0,5.14.78,7,2.38,1.64,1.49,2.46,3.35,2.46,5.58,0,1.9-.89,3.69-2.72,5.36-2.2,1.75-4.73,2.61-7.6,2.61-.86,0-1.71-.07-2.61-.22,0,.19.08.71.19,1.6.3,1.38.75,2.49,1.3,3.39,1.23,1.71,3.13,2.57,5.62,2.57,1.9,0,3.76-.71,5.51-2.12,1.27-1.15,2.27-2.46,3.02-3.91h1.64l-.04.04c-1.12,2.83-2.98,5.06-5.55,6.7-2.2,1.38-4.65,2.08-7.3,2.08-3.76,0-7-1.3-9.79-3.91ZM356.59,107.28c1.04-.97,1.71-2.05,2.01-3.28.11-.48.15-1.75.15-3.76,0-2.49-.63-3.76-1.86-3.76-.86,0-1.68.63-2.49,1.94-.75,1.15-1.15,2.94-1.23,5.36v3.46c0,.86.34,1.27,1.01,1.27.6,0,1.42-.41,2.42-1.23Z"/>
      <path class="cls-2" d="M386.75,120.23c-1.01,0-1.97-.34-2.87-1.04-.48-.48-.86-.93-1.12-1.38-.34-.67-.52-1.45-.52-2.35v-14.22c0-1.08-.22-1.97-.71-2.61-.37-.41-.82-.63-1.38-.63s-1.08.22-1.53.63c-.6.56-1.04,1.19-1.38,1.82v19.77h-9.16v-26.06h4.65c.89,0,1.75.3,2.61.86.67.48,1.15,1.04,1.41,1.68.26.48.37.82.37,1.04,1.97-2.38,4.24-3.57,6.85-3.57,1.23,0,2.46.3,3.61.89,1.38.78,2.42,1.86,3.09,3.31.45.93.67,2.01.67,3.2v18.65h-4.62Z"/>
      <path class="cls-2" d="M395.76,118.63c-1.68-1.64-2.5-3.65-2.5-5.99,0-1.23.41-2.42,1.19-3.65,1.6-2.35,4.13-3.83,7.52-4.47,2.38-.6,3.76-1.67,4.17-3.2.08-.26.11-.74.11-1.42,0-1.04-.3-1.86-.89-2.42-.63-.56-1.49-.86-2.64-.86-.78,0-1.64.15-2.57.41.71.34,1.27.89,1.68,1.68.34.56.52,1.12.52,1.75,0,1.01-.37,1.94-1.08,2.75-.89.93-1.9,1.38-3.05,1.38-.93,0-1.79-.3-2.53-.93-.93-.82-1.38-1.86-1.38-3.13,0-1.01.3-1.97.93-2.94.86-1.23,2.08-2.12,3.69-2.68,1.27-.48,3.09-.74,5.47-.74,4.39,0,7.45,1.12,9.12,3.39,1.27,1.6,1.9,3.83,1.9,6.63v16.05h-4.58c-1.15,0-2.16-.41-3.09-1.27-.56-.56-.93-1.12-1.15-1.68-2.05,2.05-4.17,3.05-6.4,3.05-1.64,0-3.13-.56-4.43-1.71ZM404.74,116.47c1.01-1.49,1.53-3.24,1.53-5.25v-6.85c-.34.74-1.19,1.56-2.61,2.49-.48.34-.93.67-1.3,1.01-1.12,1.04-1.68,2.49-1.68,4.39v2.38c0,1.08.22,1.97.67,2.68.34.48.71.71,1.19.71.71,0,1.41-.52,2.2-1.56Z"/>
      <path class="cls-2" d="M418.55,120.23v-26.06h4.47c1.42,0,2.61.52,3.57,1.56,1.45-1.53,3.24-2.27,5.36-2.27,1.68,0,3.24.56,4.69,1.64,1.94,1.53,2.9,3.5,2.9,5.92,0,1.27-.3,2.38-.89,3.31-.63.97-1.45,1.64-2.53,2.05-.52.19-1.04.3-1.6.3-1.19,0-2.23-.45-3.13-1.38-.78-.86-1.15-1.82-1.15-2.9,0-1.23.45-2.35,1.34-3.35,1.04-1.08,2.27-1.6,3.69-1.6-.93-.86-2.05-1.27-3.28-1.27s-2.35.45-3.28,1.3c-.67.71-1.01,1.23-1.01,1.53v16.64c0,1.3-.52,2.46-1.56,3.43-.93.78-1.9,1.15-2.94,1.15h-4.65Z"/>
      <path class="cls-2" d="M444.13,116.32c-2.64-2.64-3.95-5.7-3.95-9.23,0-2.16.41-4.13,1.27-5.96,1.38-2.79,3.57-4.8,6.59-6.03,1.6-.63,3.28-.93,4.95-.93,2.79,0,5.14.78,7,2.38,1.64,1.49,2.46,3.35,2.46,5.58,0,1.9-.89,3.69-2.72,5.36-2.2,1.75-4.73,2.61-7.6,2.61-.86,0-1.71-.07-2.61-.22,0,.19.08.71.19,1.6.3,1.38.75,2.49,1.3,3.39,1.23,1.71,3.13,2.57,5.62,2.57,1.9,0,3.76-.71,5.51-2.12,1.27-1.15,2.27-2.46,3.02-3.91h1.64l-.04.04c-1.12,2.83-2.98,5.06-5.55,6.7-2.2,1.38-4.65,2.08-7.3,2.08-3.76,0-7-1.3-9.79-3.91ZM452.84,107.28c1.04-.97,1.71-2.05,2.01-3.28.11-.48.15-1.75.15-3.76,0-2.49-.63-3.76-1.86-3.76-.86,0-1.67.63-2.49,1.94-.75,1.15-1.15,2.94-1.23,5.36v3.46c0,.86.34,1.27,1.01,1.27.6,0,1.42-.41,2.42-1.23Z"/>
      <path class="cls-2" d="M467.36,119.3c-2.31-1.01-3.46-2.61-3.46-4.73,0-1.27.37-2.27,1.12-3.05.63-.56,1.38-.82,2.27-.82s1.6.3,2.31.86c.71.71,1.08,1.56,1.08,2.53s-.34,1.71-1.01,2.42c-.71.63-1.6.97-2.68.97.6.52,1.34.78,2.23.78.82,0,1.6-.26,2.31-.78.93-.78,1.41-1.79,1.41-3.02,0-1.01-.3-2.01-.89-3.02-.48-.86-1.45-1.94-2.87-3.24-1.86-1.68-3.02-2.87-3.46-3.57-.93-1.3-1.38-2.68-1.38-4.13,0-1.71.82-3.16,2.49-4.36,1.97-1.3,4.28-1.97,7-1.97,1.79,0,3.39.3,4.8.93,1.08.52,1.86,1.12,2.34,1.82.56.78.89,1.53.93,2.23h-1.75s-.08-.07-.11-.26c-.41-.78-1.08-1.38-2.08-1.79-.6-.26-1.19-.37-1.79-.37-.78,0-1.49.22-2.05.63-.71.56-1.04,1.34-1.04,2.35s.26,1.94.82,2.94c.56,1,1.56,2.16,3.05,3.46,1.82,1.68,3.02,2.9,3.54,3.69.89,1.3,1.34,2.68,1.34,4.1,0,1.08-.34,2.08-1.04,3.02-.41.63-1.01,1.15-1.79,1.56-1.82,1.15-4.1,1.75-6.81,1.75-1.75,0-3.39-.3-4.84-.93Z"/>
    </g>
    <g>
      <path class="cls-2" d="M242.15,170.67c-5.46-3.52-8.2-9.5-8.2-17.99,0-3.84.81-7.32,2.38-10.39,2.02-3.72,5.09-6.39,9.17-8.04,2.38-.93,4.89-1.41,7.48-1.41,3.52,0,6.51,1.13,8.97,3.44,1.62,1.66,2.42,3.6,2.42,5.86,0,1.33-.53,2.51-1.58,3.48-.93.77-1.94,1.13-3.03,1.13-1.21,0-2.3-.44-3.23-1.33-.93-.93-1.37-2.06-1.37-3.31,0-1.17.4-2.22,1.25-3.15.53-.48.93-.81,1.29-.93.53-.24.81-.36.93-.36-1.01-.28-1.98-.44-2.91-.44-1.94,0-3.84.53-5.74,1.54-2.26,1.33-3.84,3.19-4.77,5.58-.56,1.41-.85,2.95-.85,4.57v8.41c0,2.71.81,5.17,2.46,7.4.93,1.25,1.94,2.18,3.07,2.83,1.66,1.09,3.43,1.66,5.33,1.66,1.62,0,3.07-.48,4.32-1.41,1.01-.85,1.78-1.94,2.34-3.27h2.46c-.61,2.3-1.82,4.16-3.68,5.66-2.63,2.1-5.78,3.15-9.46,3.15-3.23,0-6.26-.89-9.09-2.63Z"/>
      <path class="cls-2" d="M287.14,173.29c-1.17,0-2.22-.4-3.19-1.21-.85-.81-1.41-1.74-1.62-2.75-.08-.28-.12-5.78-.12-16.41,0-1.09-.2-2.02-.65-2.75-.36-.57-.93-.85-1.62-.85-1.78,0-3.35,2.14-4.69,6.43v17.54h-9.9v-40.42h4.97c1.17,0,2.26.4,3.27,1.25,1.09,1.01,1.66,2.3,1.66,3.8v13.22h.04c.57-1.09,1.33-2.14,2.3-3.15,2.02-1.98,4.2-2.99,6.55-2.99,2.22,0,4.16.85,5.82,2.55,1.45,1.58,2.18,3.56,2.18,5.86v19.89h-5.01Z"/>
      <path class="cls-2" d="M296.89,171.56c-1.82-1.78-2.71-3.96-2.71-6.51,0-1.33.44-2.63,1.29-3.96,1.74-2.55,4.49-4.16,8.16-4.85,2.59-.65,4.08-1.82,4.53-3.48.08-.28.12-.81.12-1.54,0-1.13-.32-2.02-.97-2.63-.69-.61-1.62-.93-2.87-.93-.85,0-1.78.16-2.79.44.77.36,1.37.97,1.82,1.82.36.61.57,1.21.57,1.9,0,1.09-.4,2.1-1.17,2.99-.97,1.01-2.06,1.5-3.31,1.5-1.01,0-1.94-.32-2.75-1.01-1.01-.89-1.5-2.02-1.5-3.4,0-1.09.32-2.14,1.01-3.19.93-1.33,2.26-2.3,4-2.91,1.37-.53,3.36-.81,5.94-.81,4.77,0,8.08,1.21,9.9,3.68,1.37,1.74,2.06,4.16,2.06,7.19v17.42h-4.97c-1.25,0-2.34-.44-3.35-1.37-.61-.61-1.01-1.21-1.25-1.82-2.22,2.22-4.53,3.31-6.95,3.31-1.78,0-3.4-.61-4.81-1.86ZM306.63,169.21c1.09-1.62,1.66-3.52,1.66-5.7v-7.44c-.36.81-1.29,1.7-2.83,2.71-.53.36-1.01.73-1.41,1.09-1.21,1.13-1.82,2.71-1.82,4.77v2.59c0,1.17.24,2.14.73,2.91.36.53.77.77,1.29.77.77,0,1.54-.57,2.39-1.7ZM303.72,140.72c-.61-.36-.89-.85-.89-1.45s1.94-3.23,5.82-7.92l2.51,2.51c.44.36.65.77.65,1.17,0,.28-.12.57-.32.85l-5.86,4.53c-.36.36-.77.53-1.13.53-.28,0-.53-.08-.77-.2Z"/>
      <path class="cls-2" d="M325.87,171.64c-1.09-1.01-1.86-2.42-2.38-4.16l-5.17-22.47c4.49,0,6.71,0,6.71.04.69.12,1.37.36,1.98.77,1.25.93,2.14,2.06,2.63,3.44.04.2.85,3.96,2.38,11.36.69,3.31,1.05,5.09,1.13,5.38.36,1.17.89,1.74,1.5,1.74.44,0,1.25-.77,2.42-2.26,2.39-3.11,3.96-6.71,4.69-10.83-.32.04-.69.08-1.05.08-1.42,0-2.67-.57-3.76-1.66-.89-1.01-1.33-2.18-1.33-3.44s.48-2.38,1.41-3.31c.93-.93,2.06-1.37,3.31-1.37,1.41,0,2.71.61,3.88,1.82.81,1.01,1.21,2.26,1.21,3.8,0,3.31-.89,6.99-2.63,10.99-3.43,7.84-7.64,11.76-12.61,11.76-1.66,0-3.11-.57-4.32-1.66Z"/>
      <path class="cls-2" d="M350.29,169.05c-2.87-2.87-4.28-6.18-4.28-10.02,0-2.34.44-4.49,1.37-6.47,1.5-3.03,3.88-5.21,7.15-6.55,1.74-.69,3.56-1.01,5.38-1.01,3.03,0,5.58.85,7.6,2.59,1.78,1.62,2.67,3.64,2.67,6.06,0,2.06-.97,4-2.95,5.82-2.39,1.9-5.13,2.83-8.25,2.83-.93,0-1.86-.08-2.83-.24,0,.2.08.77.2,1.74.32,1.5.81,2.71,1.41,3.68,1.33,1.86,3.4,2.79,6.1,2.79,2.06,0,4.08-.77,5.98-2.3,1.37-1.25,2.47-2.67,3.27-4.24h1.78l-.04.04c-1.21,3.07-3.23,5.5-6.02,7.28-2.39,1.5-5.05,2.26-7.92,2.26-4.08,0-7.6-1.41-10.63-4.24ZM359.75,159.23c1.13-1.05,1.86-2.22,2.18-3.56.12-.53.16-1.9.16-4.08,0-2.71-.69-4.08-2.02-4.08-.93,0-1.82.69-2.71,2.1-.81,1.25-1.25,3.19-1.33,5.82v3.76c0,.93.36,1.37,1.09,1.37.65,0,1.54-.44,2.63-1.33Z"/>
      <path class="cls-2" d="M371.43,173.29c1.82-3.52,4.97-9.9,9.5-19.2,1.62-3.19,2.42-5.01,2.42-5.38,0-.44-.2-.81-.65-1.01h-2.63c-1.13,0-2.06.12-2.79.36.69.28,1.25.81,1.7,1.58.44.77.69,1.5.69,2.18,0,1.09-.36,2.06-1.13,2.95-1.01,1.01-2.1,1.5-3.35,1.5-1.17,0-2.18-.44-3.07-1.29-.77-.93-1.17-1.94-1.17-3.07,0-1.33.48-2.59,1.45-3.76,1.25-1.33,2.83-2.26,4.73-2.71,1.17-.28,2.83-.44,5.01-.44h13.54c-6.51,13.38-10.67,21.83-12.41,25.3h5.21c1.17,0,2.26-.4,3.27-1.21,1.09-1.01,1.66-2.14,1.66-3.48,0-.04.77-.04,2.26-.04,0,1.66-.4,3.15-1.25,4.53-.61.97-1.33,1.7-2.18,2.14-1.05.69-2.3,1.05-3.72,1.05h-17.1Z"/>
    </g>
    <g>
      <g>
        <path class="cls-2" d="M137.83,78.57c-1.55-.8-3.11-1.62-4.75-2.21-3.39-1.22-6.43-.39-9.07,1.96-.44.4-.75.5-1.3.18.06-.51.09-1.04.2-1.56.77-3.66,3.07-6.15,6.31-7.77,1.24-.62,2.67-.86,4-1.3.68-.23,1.36-.48,1.99-.8.18-.09.36-.57.27-.73-.13-.25-.49-.51-.76-.51-.57,0-1.17.1-1.72.25-2.86.81-5.37,2.25-7.66,4.13-1.88,1.55-3,3.55-3.6,5.88-.15.59-.28,1.19-.43,1.86-.32-.13-.54-.2-.73-.31-1.64-.92-3.41-1.57-5.21-1.94-2.96-.61-6.79,1.23-7.07,5.36-.06.87,0,1.74,0,2.79-.57-.21-1.07-.38-1.55-.57-2.86-1.12-5.82-1.51-8.71-.41-1.7.65-2.61.3-3.82-.98-2.14-2.25-4.56-4.25-6.92-6.3-6.78-5.88-13.74-11.54-21.25-16.47-3.3-2.17-6.72-4.14-10.51-5.36-1.63-.53-3.29-.87-5.02-.78-2.96.17-4.96,1.78-5.52,4.7-.22,1.17-.2,2.43-.06,3.63.48,4.05,2.1,7.68,4.36,11.04,2.53,3.75,5.64,6.95,9.28,9.63.35.2.71.39,1.06.59-.02.06-.05.11-.07.17-.6-.17-1.2-.34-1.8-.52-.34-.04-.67-.07-1.01-.12-2.64-.44-5.27-.9-7.9-1.34-2.22-.38-4.44-.19-6.65-.04-.12-.06-.25-.07-.38-.04-.06,0-.12,0-.18,0-.18.03-.36.07-.54.1-.04,0-.08,0-.12,0v.02c-.3.05-.6.12-.88.23-1,.3-1.96.73-2.76,1.41-1.15.97-1.78,2.4-1.98,3.87-.04.32-.06.63-.06.95,0,.01,0,.03-.01.04-.42,1.67-.26,3.36.37,4.95.61,1.54,1.49,2.96,2.39,4.34.85,1.31,1.79,2.58,2.95,3.63v.17c.11.04.21.07.32.11.1.08.19.16.29.24.16.13.37.18.55.12,4.04,2.18,8.36,3.52,12.87,4.24,2.64.42,5.32.62,7.98.92.83.01,1.66,0,2.48.05.89.05,1.68.35,2.45.83,5.4,3.38,11.11,6.05,17.38,7.39,2.43.52,4.88.89,7.37.9.42-1.87-.24-3.67-.53-5.55,1.57.97,3.01,1.86,4.44,2.76,1.53.96,3.28.85,5.22.86-.48.59-.77.9-1.02,1.25-.98,1.39-1.99,2.76-2.89,4.19-.68,1.08-.87,2.26-.11,3.43.54.56,1.08,1.13,1.61,1.69.52.33,1.03.69,1.58.98.71.39,1.16.24,1.51-.49.48-1.01.92-2.04,1.38-3.06.81-1.82,1.1-3.73.96-5.7-.11-1.55-.71-2.82-2.06-3.68-.24-.15-.43-.38-.81-.73,1.98.15,3.67.23,5.34-.33,3.26-1.09,5.88-2.99,7.82-5.83.16-.24.38-.44.67-.77.12.92.16,1.66.31,2.36.19.88.55,1.09,1.35.64,1.76-.98,3.81-.53,5.58-1.45.44,3.42,2.42,7.39,4.77,9.55.26-.62.58-1.16.72-1.75.44-1.74.22-3.5-.16-5.22-.5-2.24-1.73-3.89-4.04-4.57-.32-.1-.64-.25-.92-.43-.99-.65-1.95-.52-2.88.08-.64.41-1.23.9-1.82,1.33-.38-1.39-.75-2.72-1.18-4.27.3-.52.73-1.25,1.18-2.03.86.45,1.57.85,2.32,1.21,1.74.84,2.45.68,3.66-.81,1.68-2.08,2.53-4.5,2.67-7.14.24-4.35-.59-8.42-3.59-11.93.47-.31.9-.58,1.32-.88,3.39-2.42,6.78-2.41,10.06.03.63.47,1.21.99,1.87,1.4.81.51,1.23.37,2.01-.61-.39-.38-.73-.9-1.21-1.15ZM80.84,72.83c.63.41,1.32.76,1.88,1.24,3.15,2.67,6.27,5.38,9.4,8.08.8.69,1.61,1.37,2.53,2.15-.58.35-1.06.63-1.72,1.02-3.69-3.54-7.37-7.05-11.03-10.59-.51-.49-.92-1.08-1.38-1.63-.89-1.07-1.78-2.15-2.67-3.22,1.04.94,2.35,1.6,2.97,2.96ZM58.44,78.49c-5.94-4.5-10.06-10.16-11.15-17.7-.58-4.05,1.72-6.1,5.75-5.29,3.04.61,5.83,1.88,8.53,3.35,4.29,2.33,8.33,5.07,12.13,8.13.83.67,1.6,1.46,2.21,2.32,4.08,5.72,9.01,10.62,14.42,15.07.59.48,1.14,1.01,1.59,1.78-.29,0-.64.11-.86-.02-2.27-1.32-4.54-2.63-6.76-4.04-.89-.57-1.71-1.29-2.42-2.07-3.18-3.5-6.21-7.14-9.49-10.54-2.73-2.82-5.91-5.11-9.83-6.06-1.03-.25-2.11-.37-3.18-.4-.85-.02-1.74.13-2.5,1,.4.05.66.14.9.11,2.55-.29,4.95.26,7.21,1.4,2.91,1.46,5.37,3.53,7.6,5.87.22.24.38.54.61.88-1.06.55-2.12.71-3.17.46-1.94-.46-3.85-1.03-5.76-1.57-1.64-.46-3.26-.98-4.92-1.37-1.21-.29-2.43-.1-3.58.4-.62.27-1.27.55-1.4,1.39.15.03.32.13.4.08,2.08-1.16,4.21-1.02,6.37-.3,1.61.54,3.19,1.19,4.83,1.67,1.44.42,2.92.8,4.41.96.98.11,2.02-.16,3.02-.34.49-.09.89-.27,1.31.21,1.97,2.21,3.98,4.4,5.97,6.6l-.12.3c-.77-.08-1.55-.17-2.32-.25-3.54-.39-7.08-.75-10.6-1.19-1.93-.24-3.84-.68-5.77-.92-.69-.09-1.45.04-2.11.26-.53.18-.9.17-1.33-.16ZM90.84,87.4c-.55.58-.96,1.26-1.56,1.58-.54.28-1.31.28-1.94.18-1.64-.24-3.27-.54-4.88-.91-4.12-.94-8.25-1.89-12.35-2.93-1.11-.28-2.2-.81-3.19-1.39-2.18-1.27-4.29-2.66-6.54-4.07.28-.11.51-.28.73-.27,1.02.07,2.03.19,3.04.31,3.19.39,6.37.78,9.56,1.18,1.69.21,3.38.44,5.07.68,2.15.3,4.14,1.06,6.02,2.13,1.98,1.13,3.95,2.29,6.05,3.51ZM106.81,97.31c-9.17,2.11-18.43,3.72-27.74,5.01-5.17.72-10.38,1.13-15.6,1.01-7.46-.17-14.58-1.75-21.24-5.22-.37-.19-.82-.24-1.23-.36v.29c-.13-.22-.26-.43-.39-.65-.43-.71-.85-1.43-1.26-2.16-.78-1.38-1.59-2.76-2.19-4.23-.12-.3-.23-.61-.33-.92,0-.12,0-.24,0-.36,0-.74.02-1.49.1-2.23.13-1.16.43-2.33,1.02-3.33.62-.38,1.27-.7,1.94-.95.03,0,.06,0,.1-.01.34-.03.68-.06,1.01-.11v.32c5.35-1.1,10.57-.18,15.76,1.05,5.11,1.21,10.18,2.62,15.31,3.76,4.75,1.06,9.53,2.04,14.34,2.75,4.76.7,9.57,1.02,14.36,1.52.73.07,1.46.14,2.17.29.42.09.81.35,1.11.78-2.12,0-4.24.03-6.35,0-2.39-.04-4.78-.28-7.16-.19-4.08.16-7.93-.75-11.72-2.09-5.39-1.9-10.88-3.39-16.58-3.95-4.38-.43-8.78-.52-13.05.76-1.67.5-3.24,1.31-4.88,1.92-1.08.4-2.2.68-3.31,1.01v1.17c1.35-.4,2.77-.63,4.02-1.23,3.77-1.79,7.71-2.63,11.87-2.67,5.76-.06,11.33.99,16.82,2.64,1.44.43,2.87.87,4.47,1.35-.43.27-.69.49-.99.63-2.79,1.26-5.57,2.55-8.4,3.74-3.18,1.34-6.48,1.7-9.88.89-.66-.16-1.4-.38-2.29.11,1.32.82,2.64,1.06,3.95,1.25,2.91.43,5.76.08,8.46-1.05,3.37-1.41,6.67-2.97,10.01-4.45.42-.18.97-.4,1.35-.27,4.4,1.47,8.96,1.16,13.48,1.36,3.7.16,7.41.23,11.11.35.22,0,.43.05.66.19-1,.64-2.14.77-3.24.93-4.82.71-9.65,1.35-14.47,2.08-2.21.34-4.39.87-6.6,1.22-1.96.31-3.89.11-5.68-.86-.11-.06-.27-.02-.61-.04.2.37.3.68.5.88.81.78,1.84,1.16,2.93,1.13,1.84-.04,3.73-.02,5.52-.41,3.96-.86,7.98-1.32,11.97-1.9,3.32-.49,6.63-1.08,9.95-1.63.64-.11,1.28-.3,1.64.64-.24.08-.49.17-.74.23Z"/>
        <path class="cls-2" d="M52.52,146.1c-.51-1.18-1.14-2.33-1.5-3.56-.43-1.47-.62-3.01-.92-4.52.86.62,1.67,1.3,2.58,1.84,5.11,3.05,10.63,4.26,16.56,3.52.31-.04.77-.17.87-.39.35-.76.81-1.52.73-2.48-.62,0-1.15-.02-1.68,0-3.55.16-6.99-.53-10.37-1.5-2.61-.75-4.99-1.95-7.06-3.73-.55-.47-1.09-.96-1.64-1.44.1-1.81.21-3.62.31-5.43.33.19.67.37,1,.56,1.52.86,2.99,1.85,4.58,2.56,3.35,1.52,6.92,2.34,10.57,2.75,1.93.22,3.88.37,5.94-.02.1-.81.2-1.6.3-2.49-.48-.05-.86-.07-1.24-.13-1.93-.27-3.88-.42-5.78-.84-4.99-1.11-9.48-3.24-13.16-6.88-.34-.33-.6-.75-.89-1.12.71-1.74,1.41-3.48,2.12-5.22.58.43,1.16.85,1.74,1.28,4.64,3.42,9.92,5.09,15.58,5.74.08,0,.16-.09.33-.18.16-.73.34-1.51.53-2.34-.47-.14-.8-.23-1.12-.33-1.63-.5-3.28-.93-4.88-1.52-3.74-1.38-7.02-3.58-10.07-6.11,1.05-1.98,2.51-3.65,4.08-5.23,1.02.65,2.01,1.37,3.08,1.95,8.69,4.73,17.87,7.37,27.87,6.5.57-.05,1.14.05,1.72.08-.33,1.37-.57,2.76-1,4.1-.53,1.67-1.82,2.46-3.53,2.59-1.82.14-3.6-.06-5.34-.59-.5-.15-1.02-.24-1.85-.43,1.08,1.25,2,2.23,2.83,3.28,2.1,2.68,4.21,5.36,6.21,8.12,1.26,1.74,2.15,3.71,2.63,5.82.37,1.59.46,3.18-.07,4.76-.59,1.74-1.68,2.37-3.39,1.69-.96-.38-1.89-1.04-2.61-1.78-1.01-1.04-1.92-2.22-2.71-3.44-3.87-5.96-6.47-12.42-7.59-19.45-.17-1.04-.2-2.11-.29-3.22-.7.04-.74.54-.72.93.11,1.89.17,3.79.44,5.66.25,1.78.81,3.51,1.07,5.29.16,1.08.21,2.24.02,3.31-.64,3.53-2.14,6.76-3.8,9.92-1.62,3.06-3.39,6.03-5.67,8.66-1.18,1.36-2.44,2.66-4.09,3.48-2.35,1.17-4.27.86-5.78-1.27-1.4-1.97-2.54-4.13-3.8-6.21.22.08.46.14.67.25,3.34,1.84,6.95,2.68,10.74,2.85.38.02.89-.15,1.12-.42.45-.54.74-1.2,1.21-2.03-5.37.08-10.24-.97-14.85-3.2Z"/>
        <path class="cls-2" d="M78.01,135.59c.49,1.61,1.05,3.2,1.47,4.83,1.21,4.81,2.42,9.62,3.52,14.45.53,2.34.55,4.76-.14,7.09-.31,1.05-.8,2.12-1.46,2.99-2.05,2.7-5.67,2.65-7.75-.02-.92-1.18-1.41-2.54-1.64-4.01-.47-3.01.06-5.94.82-8.81,1.07-3.99,2.32-7.93,3.48-11.89.45-1.54.9-3.07,1.34-4.61.12,0,.25,0,.37-.01Z"/>
        <path class="cls-2" d="M98.91,124.44c.95,1.16,1.96,2.28,2.82,3.51,1.26,1.8,1.88,3.82,1.67,6.05-.2,2.14-1.83,2.92-3.62,1.7-.51-.35-.99-.8-1.36-1.3-2.62-3.56-2.74-7.5-1.81-11.71.4.13.62.21.84.28.49.49.97.99,1.46,1.48Z"/>
        <path class="cls-2" d="M100.08,137.08c1.43-.39,2.47-.04,3.16,1.21.73,1.32,1.54,2.59,2.21,3.93.95,1.89.74,3.76-.26,5.59-.34.63-.77,1.1-1.44,1.37-.74.3-1.47.65-2.38.75.18-.23.32-.54.56-.67,1.08-.63,1.52-1.57,1.56-2.78.02-.63.14-1.26.21-1.86-1.88-1.53-3.67-5.25-3.63-7.56Z"/>
        <path class="cls-2" d="M74.19,166.82c1.01.34.98.97.67,1.67-.5,1.15-1.02,2.3-1.53,3.44-.06.13-.13.32-.24.35-1.29.36-.98,1.39-.92,2.26.1,1.38.48,2.67,1.41,3.75.11.13.15.31.31.66-.86-.16-1.21-.63-1.54-1.16-.19-.31-.4-.72-.69-.84-1.04-.39-1.51-1.22-1.7-2.19-.18-.89-.26-1.82-.23-2.73.03-.92.48-1.75,1.39-2.04,1.44-.45,2.22-1.48,2.77-2.77.05-.13.17-.23.3-.4Z"/>
        <path class="cls-2" d="M90.58,157.33c.06-1.43,1.65-1.68,1.93-2.96.27-1.22.49-2.45,0-3.59-.48-1.09-1.22-2.06-1.85-3.08.95-.67,1.49-.69,2.3-.1,2.27,1.69,2.76,5.53.8,7.57-.87.9-2.1,1.45-3.17,2.16Z"/>
        <path class="cls-2" d="M134.49,114.49c-2.09.17-3.79.31-5.49.44.04-1.64.51-2.15,2.02-2.03,1.21.1,2.32.49,3.47,1.59Z"/>
        <path class="cls-1" d="M98.91,124.44c-.49-.49-.97-.99-1.46-1.48.11-.28.23-.55.34-.83.54.57,1.08,1.13,1.61,1.69-.17.2-.33.41-.5.62Z"/>
        <path class="cls-1" d="M58.59,81.98c.35.2.71.39,1.06.59-.02.06-.05.11-.07.17-.6-.17-1.2-.34-1.8-.52.27-.08.54-.16.82-.24Z"/>
        <g>
          <path class="cls-4" d="M105.91,96.45c-3.31.56-6.62,1.15-9.95,1.63-4,.59-8.01,1.05-11.97,1.9-1.79.39-3.67.36-5.52.41-1.09.03-2.12-.35-2.93-1.13-.2-.2-.29-.51-.5-.88.33.02.5-.02.61.04,1.79.97,3.72,1.17,5.68.86,2.21-.35,4.39-.89,6.6-1.22,4.82-.73,9.65-1.37,14.47-2.08,1.1-.16,2.24-.29,3.24-.93-.23-.14-.44-.18-.66-.19-3.7-.11-7.41-.18-11.11-.35-4.51-.2-9.08.11-13.48-1.36-.38-.13-.93.09-1.35.27-3.34,1.47-6.64,3.04-10.01,4.45-2.7,1.13-5.55,1.48-8.46,1.05-1.3-.19-2.62-.43-3.95-1.25.89-.49,1.62-.27,2.29-.11,3.4.81,6.7.45,9.88-.89,2.83-1.19,5.61-2.48,8.4-3.74.3-.13.56-.35.99-.63-1.6-.48-3.03-.92-4.47-1.35-5.48-1.66-11.05-2.71-16.82-2.64-4.16.05-8.1.88-11.87,2.67-1.15.55-2.44.79-3.69,1.13.33-.54.7-1.04,1.13-1.5.62-.18,1.24-.36,1.85-.59,1.64-.6,3.21-1.42,4.88-1.92,4.28-1.28,8.67-1.19,13.05-.76,5.7.56,11.19,2.05,16.58,3.95,3.79,1.34,7.64,2.25,11.72,2.09,2.38-.1,4.77.15,7.16.19,2.12.04,4.24,0,6.35,0-.3-.43-.69-.69-1.11-.78-.71-.15-1.44-.21-2.17-.29-4.79-.49-9.61-.81-14.36-1.52-4.81-.71-9.59-1.7-14.34-2.75-5.13-1.14-10.2-2.55-15.31-3.76-4.88-1.16-9.79-2.04-14.81-1.22-.13-.11-.31-.15-.49-.12-1.29.2-2.62.46-3.6,1.38-.88.82-1.32,2-1.45,3.18-.15,1.43.25,2.88.74,4.21.4,1.09.86,2.17,1.36,3.22.13.03.24.13.3.27.11.02.2.09.27.18.39.51.84,1.03,1.31,1.51.11.07.22.14.33.2.53.32,1.08.61,1.59.96,0-.02.02-.04.03-.06,6.62,3.42,13.7,4.99,21.12,5.16,5.23.12,10.43-.29,15.6-1.01,9.31-1.29,18.58-2.91,27.74-5.01.25-.06.49-.15.74-.23-.36-.94-1-.74-1.64-.64ZM37.44,87.71s.03,0,.04.01c-.07.77.02,1.57.19,2.34-.19-.78-.3-1.59-.23-2.36ZM40.99,97.42c-.14-.12-.26-.28-.36-.44-.32-.51-.59-1.07-.86-1.61-.05-.1-.09-.19-.14-.29.02.04.04.07.06.11.3.51.64,1,1,1.47.1.13.2.26.3.4v.36Z"/>
          <path class="cls-4" d="M92.67,117.44c-.57-.03-1.15-.13-1.72-.08-10,.86-19.18-1.78-27.87-6.5-1.06-.58-2.05-1.3-3.08-1.95.99-.96,1.99-1.92,2.99-2.88.83.01,1.66,0,2.48.05.89.05,1.68.35,2.45.83,5.4,3.38,11.11,6.05,17.38,7.39,2.43.52,4.88.89,7.37.9,0,.75,0,1.5,0,2.24Z"/>
          <path class="cls-4" d="M51.71,122.81c.3.38.55.79.89,1.12,3.68,3.64,8.17,5.77,13.16,6.88,1.89.42,3.85.57,5.78.84.38.05.76.08,1.24.13-.11.89-.21,1.69-.3,2.49-2.06.38-4.01.23-5.94.02-3.65-.41-7.22-1.23-10.57-2.75-1.59-.72-3.05-1.7-4.58-2.56-.33-.19-.67-.37-1-.56.27-1.91.47-3.84,1.31-5.62Z"/>
          <path class="cls-4" d="M50.08,133.86c.55.48,1.09.96,1.64,1.44,2.07,1.78,4.45,2.97,7.06,3.73,3.39.98,6.82,1.66,10.37,1.5.53-.02,1.07,0,1.68,0,.08.96-.38,1.72-.73,2.48-.1.22-.56.35-.87.39-5.92.74-11.44-.47-16.56-3.52-.9-.54-1.72-1.22-2.58-1.84-.09-.82-.24-1.64-.26-2.46-.01-.56.15-1.13.24-1.7Z"/>
          <path class="cls-4" d="M55.93,114.13c3.06,2.53,6.33,4.72,10.07,6.11,1.59.59,3.25,1.02,4.88,1.52.32.1.64.19,1.12.33-.19.83-.36,1.62-.53,2.34-.16.09-.25.19-.33.18-5.66-.65-10.94-2.32-15.58-5.74-.58-.43-1.16-.85-1.74-1.28.7-1.15,1.4-2.31,2.11-3.46Z"/>
          <path class="cls-4" d="M52.52,146.1c4.6,2.24,9.48,3.28,14.85,3.2-.48.82-.77,1.49-1.21,2.03-.23.27-.74.44-1.12.42-3.78-.16-7.39-1.01-10.74-2.85-.21-.11-.44-.17-.67-.25-.37-.85-.74-1.71-1.11-2.56Z"/>
          <path class="cls-4" d="M73.23,72.28c-1.06.55-2.12.71-3.17.46-1.94-.46-3.85-1.03-5.76-1.57-1.64-.46-3.26-.98-4.92-1.37-1.21-.29-2.43-.1-3.58.4-.62.27-1.27.55-1.4,1.39.15.03.32.13.4.08,2.08-1.16,4.21-1.02,6.37-.3,1.61.54,3.19,1.19,4.83,1.67,1.44.42,2.92.8,4.41.96.98.11,2.02-.16,3.02-.34.49-.09.89-.27,1.31.21,1.97,2.21,3.98,4.4,5.97,6.6-.04.1-.08.2-.12.3-.77-.08-1.55-.17-2.32-.25-3.54-.39-7.08-.75-10.6-1.19-1.93-.24-3.84-.68-5.77-.92-.69-.09-1.45.04-2.11.26-.53.18-.9.17-1.33-.16-5.94-4.5-10.06-10.16-11.15-17.7-.58-4.05,1.72-6.1,5.75-5.29,3.04.61,5.83,1.88,8.53,3.35,4.29,2.33,8.33,5.07,12.13,8.13.83.67,1.6,1.46,2.21,2.32,4.08,5.72,9.01,10.62,14.42,15.07.59.48,1.14,1.01,1.59,1.78-.29,0-.64.11-.86-.02-2.27-1.32-4.54-2.63-6.76-4.04-.89-.57-1.71-1.29-2.42-2.07-3.18-3.5-6.21-7.14-9.49-10.54-2.73-2.82-5.91-5.11-9.83-6.06-1.03-.25-2.11-.37-3.18-.4-.85-.02-1.74.13-2.5,1,.4.05.66.14.9.11,2.55-.29,4.95.26,7.21,1.4,2.91,1.46,5.37,3.53,7.6,5.87.22.24.38.54.61.88Z"/>
          <path class="cls-4" d="M90.84,87.4c-.55.58-.96,1.26-1.56,1.58-.54.28-1.31.28-1.94.18-1.64-.24-3.27-.54-4.88-.91-4.12-.94-8.25-1.89-12.35-2.93-1.11-.28-2.2-.81-3.19-1.39-2.18-1.27-4.29-2.66-6.54-4.07.28-.11.51-.28.73-.27,1.02.07,2.03.19,3.04.31,3.19.39,6.37.78,9.56,1.18,1.69.21,3.38.44,5.07.68,2.15.3,4.14,1.06,6.02,2.13,1.98,1.13,3.95,2.29,6.05,3.51Z"/>
        </g>
        <path class="cls-4" d="M80.84,72.83c.63.41,1.32.76,1.88,1.24,3.15,2.67,6.27,5.38,9.4,8.08.8.69,1.61,1.37,2.53,2.15-.58.35-1.06.63-1.72,1.02-3.69-3.54-7.37-7.05-11.03-10.59-.51-.49-.92-1.08-1.38-1.63.1-.09.2-.17.3-.26Z"/>
      </g>
      <g>
        <path class="cls-2" d="M203.58,206.56c1.64,1.73,3.2,3.54,4.83,5.27.51-.36.83-.89.98-1.54.24-1.02.11-2.17-.1-3.23-.05-.24-.1-.47-.16-.71-.16.31-.34.62-.52.96-.29-.2-.53-.34-.73-.52-.43-.41-.88-.82-1.26-1.27-.99-1.17-1.93-2.39-2.94-3.55-2.14-2.47-4.29-4.93-6.32-7.5-2.2-2.78-4.18-5.67-5.65-8.9-.71-1.57-1.31-3.16-1.29-4.91.03-2.19.09-4.38.18-6.56.06-1.39.22-2.78.29-4.17.13-2.9-.37-5.73-1.13-8.51-.27-.98.09-1.65.8-2.23.44-.36.9-.7,1.3-1.1,3.04-3.07,5.14-6.71,6.5-10.79.66-1.97.85-4,.51-6.06-.24-1.45.01-2.83.56-4.17.38-.92.85-1.8,1.23-2.72.29-.71.59-1.43.73-2.17.24-1.31-.72-2.16-1.99-1.79-.62.18-1.24.43-1.8.76-1.76,1.05-3.48,2.18-4.95,3.62-2.32,2.26-4.6,4.57-6.89,6.86-.26.26-.52.53-.78.8l-.16-.12c.27-.74.51-1.49.83-2.21,1.26-2.85,2.14-5.82,2.71-8.87.6-3.18.57-6.39.55-9.61-.01-2.2-.46-4.29-1.2-6.33-.1-.27-.2-.53-.28-.8-.74-2.28-1.96-4.29-3.52-6.09-.46-.52-1.07-.92-1.66-1.3-.45-.29-.99-.28-1.48-.04-1.15.58-2.25,1.23-3.02,2.31-.9,1.27-1.83,2.53-2.67,3.85-2.62,4.09-4.37,8.54-5.44,13.27-.24,1.05-.48,2.11-.76,3.15-.69,2.53-1.17,5.1-1.43,7.71-.28,2.91-.45,5.84-.67,8.76-.01.18-.05.35-.08.53-.16-.09-.22-.18-.24-.28-.38-1.87-.8-3.73-1.14-5.6-.86-4.77-2.02-9.45-3.51-14.06-1.01-3.14-2.01-6.28-2.67-9.52-.03-.14-.07-.27-.11-.41-.33-1.2-.65-2.39-.96-3.54.13-.11.17-.16.22-.18,2.33-.77,3.57-2.51,4.25-4.75.29-.95.09-1.86-.32-2.73-.22-.48-.58-.86-1.09-1.03-.93-.32-1.85-.2-2.83.04.26.24.45.42.65.6-.36.38-.7.19-1.01.11-.59-.15-1.19-.17-1.76.04-1.69.63-3.27,1.46-4.64,2.65-.25.21-.47.45-.85.82-.02-.93.35-1.49.81-1.97.45-.47.95-.89,1.48-1.28.52-.39,1.09-.71,1.64-1.06-1.54.34-2.8,1.11-3.76,2.34-1,1.28-1.04,2.55-.08,3.84.42.56.92,1.1,1.49,1.5,1.43,1.02,3.01,1.57,4.85,1.22.08.33.15.63.23.92.79,2.96,1.55,5.94,2.4,8.89.9,3.14,1.97,6.24,2.82,9.39,1.33,4.97,2.31,10.03,3.06,15.12.27,1.8.37,3.62.52,5.43.04.46-.05.92-.08,1.38-.07,0-.14.02-.21.03-.13-.3-.27-.61-.39-.91-.18-.45-.33-.91-.51-1.36-.95-2.41-1.9-4.81-2.84-7.22-.38-.98-.76-1.96-1.14-2.94-.42-1.1-1.12-2-2.14-2.58-1.11-.64-2.26-1.19-3.41-1.75-.8-.39-.79-.36-.73-1.28.08-1.19.2-2.39.14-3.58-.04-.95-.21-1.93-.52-2.83-.71-2.01-2.61-3.08-4.46-2.91-1.26.11-2.48.56-3.71.91-.28.08-.54.32-.76.52-1.03.94-2.02,1.92-3.07,2.84-.97.84-1.42,1.9-1.55,3.13-.04.4-.02.8-.07,1.19-.09.75.02,1.41.67,1.9.15.12.26.3.36.47.74,1.27,1.85,2.14,3.12,2.82.29.16.57.33.98.57-.65.78-1.19,1.51-1.82,2.15-.5.51-.86.5-1.45.11-.45-.3-.88-.63-1.3-.97-1.68-1.36-3.38-2.7-5.02-4.09-1.45-1.23-2.85-2.52-4.27-3.8-.22-.2-.4-.45-.56-.63,2.26-2.4,3.25-5.15,2.81-8.33-.26-1.9-1.31-3.31-3.22-3.94-.32-.11-.64-.23-.97-.33-1.93-.56-3.41-.1-4.54,1.57-.81,1.18-1.73,2.25-2.72,3.27-.96.99-1.49,2.2-1.66,3.57-.1.78.02,1.51.43,2.22,1.17,2.03,3.95,3.43,6.32,3.1.84-.12,1.66-.35,2.51-.53.05.03.13.07.19.13,3.29,2.8,6.59,5.6,9.87,8.41.58.5,1.12,1.05,1.65,1.6.57.59.58,1.36.76,2.17-1.27.03-2.43.06-3.59.07-.16,0-.32-.1-.49-.15-1-.32-1.98-.73-3-.96-3.27-.72-6.56-1.39-9.85-2.06-.46-.09-.93-.12-1.39-.18.08.2.2.28.32.32,2.18.74,4.38,1.43,6.66,1.8,2.48.41,4.91.95,7.19,2.06.78.38,1.6.56,2.46.6,1.54.08,3.05.35,4.47.99,1.19.54,2.37,1.1,3.56,1.65.29.13.56.37,1.13.22-1.23-1.12-2.53-1.89-3.91-2.75.68-.32,1.19-.11,1.63.17.74.47,1.44,1.02,2.15,1.53,1.68,1.21,3.33,2.48,5.05,3.63,2.13,1.43,4.14,3,5.99,4.78.42.4.78.86,1.17,1.29-.03.03-.06.06-.09.09-.52-.15-1.04-.3-1.56-.45l-.05.14c.21.16.42.32.74.56-.46.33-.85.61-1.25.9.29.15.58.29.86.43-.61-.07-1.18-.22-1.71-.48-4.69-2.25-9.36-4.54-14.05-6.78-2-.95-4.01-1.9-6.07-2.71-2.68-1.05-5.45-1.81-8.26-2.41-2.85-.61-5.72-.94-8.64-.82-.2,0-.39.06-.61.09,2.91.52,5.77.96,8.61,1.55,3.01.62,6.01,1.3,8.85,2.5,2.46,1.04,4.9,2.14,7.3,3.31,3.15,1.52,6.26,3.12,9.37,4.71.84.43,1.62.98,2.53,1.53-1.03.12-1.92.25-2.82.31-.32.02-.67-.09-.97-.23-2.71-1.26-5.53-2.25-8.32-3.29-4.05-1.51-8.21-2.5-12.51-2.9-2.16-.2-4.31-.26-6.47-.05-2.45.24-4.83.75-7.05,1.87-3.57,1.8-6.45,4.35-8.41,7.86-.44.78-.68,1.68-.97,2.54-.17.5-.03.95.38,1.31.41.37.81.23,1.27.08.59-.2,1.19-.39,1.8-.47,2.75-.38,5.5-.25,8.25.1,3.16.41,6.33.7,9.53.39,1.02-.1,2.04-.18,3.06-.26.17-.01.35.02.62.04-.17.14-.23.2-.3.24-4.81,2.4-9.16,5.5-13.34,8.84-.16.12-.31.25-.45.39-.85.87-.87,2.09-.07,3,.65.73,1.49,1.01,2.43,1.07,1.24.08,2.44-.16,3.61-.51,3-.9,5.88-2.13,8.73-3.42,1.1-.5,2.2-1.02,3.3-1.54.04.05.08.09.12.14-1.51,2.17-2.38,4.6-2.77,7.18-.2,1.34-.41,2.7.48,3.94.57.79,1.23,1.41,2.21,1.61.93.2,1.86.22,2.78-.07,2.18-.67,4.28-1.55,6.18-2.82,1.35-.9,2.68-1.82,4-2.77,1.72-1.24,3.69-1.69,5.75-1.89.22-.02.46.02.67.09.67.23,1.34.46,2,.73,2,.82,3.97,1.69,5.98,2.49,2.84,1.13,5.79,1.63,8.85,1.46,1.53-.08,3.06-.24,4.6-.29,1.74-.06,3.48.03,5.16.51,2.22.64,4.04,1.94,5.54,3.68,1.15,1.33,2.25,2.71,3.38,4.06,2.3,2.75,4.6,5.49,6.9,8.24.69.83,1.32,1.72,2.07,2.5ZM141.71,135.58c-.1-.95.08-1.88.47-2.74.15-.32.41-.62.67-.86,1.15-1.02,2.32-2,3.47-3.01.73-.64,2.59-.95,3.5-.45-.39.51-.68.99-1.06,1.39-1.22,1.29-2.57,2.44-4.26,3.04-1.37.49-1.92,1.49-2.14,2.8-.04.21-.13.41-.19.61l-.19.02c-.09-.27-.24-.54-.27-.82ZM121.8,130.85c-.01-1.51.51-2.83,1.43-4.01.35-.45.78-.83,1.15-1.26.59-.69,1.2-1.36,1.72-2.09,1.06-1.48,2.09-1.72,3.81-.68-.29.14-.49.25-.69.34-1.04.45-1.88,1.12-2.49,2.1-.24.38-.61.66-.9,1.01-.43.52-.88,1.03-1.25,1.59-.46.71-.85,1.47-1.23,2.23-.22.43-.36.89-.55,1.33-.09.21-.22.41-.33.63-.6-.28-.66-.73-.66-1.19ZM184.24,120.48c.53,4.08.07,8.12-1.07,12.06-1.16,3.99-2.78,7.81-4.77,11.47-.05.1-.13.18-.24.34-.32-.32-.62-.6-.9-.89-.36-.37-.78-.18-1.2-.21-.48-.03-.85.02-1.14.46.23-.73.48-1.45.7-2.18.88-2.85,1.5-5.77,2.03-8.7.6-3.3,1.04-6.62,1.69-9.9.74-3.73,1.54-7.45,2.69-11.08.09-.27.19-.54.29-.8.03-.07.1-.12.25-.29.58,3.31,1.24,6.5,1.66,9.73ZM167.85,152.98c0-2.96-.1-5.92.05-8.86.11-2.32.47-4.63.82-6.94.71-4.76,1.71-9.46,3.26-14.01,1.1-3.23,2.43-6.37,4.27-9.27,1.3-2.06,2.86-3.89,4.79-5.39.06-.05.15-.06.32-.14-.14.8-.2,1.54-.41,2.24-.88,3.01-1.34,6.1-1.92,9.18-1.15,6.15-2.16,12.32-3.4,18.44-.91,4.51-2.51,8.79-4.98,12.71-.45.72-.99,1.39-1.45,2.1-.3.47-.79.48-1.28.65-.03-.27-.07-.49-.07-.71ZM154.26,138.7c2.17.36,4.19.94,5.44,2.93.56.89,1.08,1.81,1.48,2.78.92,2.23,1.78,4.49,2.64,6.74.63,1.66.9,3.4,1.17,5.15-.76-.29-1.41.15-2.23.2-.88-1.45-1.86-2.95-2.72-4.51-1.34-2.41-2.63-4.84-3.88-7.29-.67-1.31-1.23-2.69-1.78-4.05-.24-.59-.4-1.23-.1-1.95ZM160.6,157.45c-.8-.75-1.72-1.39-2.63-2.02-2.59-1.76-5.04-3.69-7.28-5.88-.71-.69-1.47-1.34-2.19-2.02-.24-.23-.47-.5-.64-.79-.1-.17-.15-.46-.08-.64.24-.57.55-1.1.84-1.65.76.08,1.33.43,1.79.88,1.08,1.05,2.12,2.13,3.15,3.23.75.81,1.44,1.68,2.17,2.52.28.32.59.61,1.19.67-.08-.26-.1-.47-.21-.63-.37-.53-.76-1.06-1.18-1.56-1-1.2-2.04-2.36-3.03-3.58-.77-.96-1.68-1.67-2.88-2.02-.67-.19-1.16-.58-1.32-1.36,1.39-.85,2.78-1.7,4.23-2.58.21.39.42.85.69,1.28,1.13,1.84,2.28,3.66,3.4,5.51,1.89,3.11,3.6,6.31,5.13,9.61.33.71.67,1.42.96,2.17-.73-.36-1.49-.56-2.11-1.15ZM167.97,161.32c-.07-.08-.12-.18-.18-.28,1.39-.42,3.99.18,5.98,1.36-.3-.59-1.25-1.23-2.43-1.53-.95-.24-1.92-.41-2.93-.62.19-.49.54-.67.98-.75,1.59-.3,3.18-.61,4.77-.95-1.59.16-3.18.33-4.81.5.48-.7,1.11-1.21,1.84-1.59,1.88-.98,3.85-1.69,5.99-1.8.27-.01.55-.07.81-.15-2.48-.3-4.69.55-6.92,1.6.33-.42.62-.89,1-1.27,1.99-1.94,4.21-3.6,6.79-4.62,2.53-1,5.09-.75,7.5.52,1.47.78,2.24,2.14,2.81,3.62.08.21.16.42.24.63,0,.02.05.02.15.07.05-2-.73-3.53-2.36-4.61-1.42-.94-3.04-1.24-4.71-1.29-.92-.03-1.85.03-2.9.06.37-.45.68-.84,1-1.22,2.35-2.79,5.05-5.23,7.68-7.75.86-.83,1.71-1.66,2.55-2.51,2.2-2.24,4.63-4.19,7.26-5.9.02-.01.05-.04.09-.08.48-.32.96-.64,1.44-.96-.02.67-.24,1.19-.64,1.62-.35.64-.68,1.29-1.06,1.91-.87,1.41-1.28,2.89-.92,4.55.12.55.15,1.13.23,1.69.28,1.91-.16,3.71-.71,5.52-1.16,3.77-3.37,6.86-5.99,9.71-2.22,2.41-4.62,4.62-7.34,6.47-2.7,1.84-5.68,2.41-8.86,1.91-.88-.14-1.74-.52-2.54-.93-1.44-.74-2.75-1.7-3.82-2.94ZM128.19,168.41c-1.96-.02-3.91-.25-5.86-.42-1.87-.16-3.73-.4-5.6-.53-1.31-.09-2.61.08-3.89.41-.13.03-.27.04-.41.05,0-.07-.02-.1,0-.12,1.45-2.1,2.83-4.24,4.81-5.93,2.5-2.14,5.4-3.33,8.58-3.92,3.27-.61,6.56-.49,9.86-.31,4.34.24,8.45,1.39,12.45,3.01,1.03.41,2.08.76,3.12,1.14.29.1.57.21.85.47-.17.02-.35.06-.52.06-4.69.13-9.38.26-14.07.39-.77.02-1.54.03-2.3.07-3.72.16-7.44.27-11.16.52-1.66.11-3.31.52-4.96.8-.18.03-.35.12-.52.18.01.03.02.07.03.1.75-.12,1.5-.27,2.25-.36,3.19-.41,6.4-.48,9.62-.53,3.64-.06,7.28-.05,10.92-.14,3.24-.08,6.48-.24,9.72-.36.62-.02,1.25-.02,1.88,0,.29.01.58.1.87.15,0,.06,0,.12,0,.18-.26.09-.51.19-.77.26-4.38,1.23-8.75,2.47-13.03,4-1.1.4-2.24.63-3.42.66-2.81.07-5.63.21-8.44.18ZM153.29,172.77c.66-1.68,1.57-3.22,2.65-4.65.12-.16.24-.34.4-.44,1.68-1.05,3.21-2.37,5.16-2.96.1-.03.21-.04.41-.07-.37.63-.69,1.18-1.01,1.74.04.03.08.05.12.08.34-.5.68-.99,1.01-1.49.33-.5.7-.96,1.42-1.09l.03,1.53c.05,0,.11.01.16.02.06-.36.13-.73.18-1.09.09-.64,1.13-1.42,1.74-1.27.15.04.29.17.4.29.47.53.96,1.05,1.39,1.61.65.86.98,1.84,1.03,2.93.09,1.77-.29,3.44-.96,5.07-2.26,5.53-8.22,8.62-12.4,8.76-1.06.04-2.12.05-3.12-.33-.66-.25-1.31-.56-1.87-.98-.83-.63-1.25-1.52-1.28-2.58-.03-1.25.28-2.43.82-3.54,1.25-2.57,3.11-4.59,5.49-6.17.1-.07.24-.09.46-.16-.63,1.09-1.23,2.07-1.78,3.08-.54,1-.99,2.04-1.08,3.21.21-.5.42-1,.62-1.51ZM142.92,185.39c-1.02.86-1.58,2.08-2.55,3.18-.16-.94.46-1.43.66-2.22-.9.66-1.16,1.55-1.47,2.43-.52-.17-.77-.52-.89-.92-.13-.46-.25-.95-.21-1.42.28-3.32,1.18-6.45,3.3-9.08,2.52-3.12,5.42-5.83,9.07-7.62,1.14-.56,2.27-1.12,3.45-1.6-1.18.87-2.19,1.89-3.14,2.98-1.21,1.4-2.05,3-2.52,4.79-.5,1.93-.22,3.72,1.09,5.29.08.1.14.23.24.39-1.4.25-2.55.93-3.73,1.56-1.18.63-2.28,1.37-3.31,2.24Z"/>
        <path class="cls-4" d="M118.59,164.36c.75-.12,1.5-.27,2.25-.36,3.19-.41,6.4-.48,9.62-.53,3.64-.06,7.28-.05,10.92-.14,3.24-.08,6.48-.24,9.72-.36.62-.02,1.25-.02,1.88,0,.29.01.58.1.87.15,0,.06,0,.12,0,.18-.26.09-.51.19-.77.26-4.38,1.23-8.75,2.47-13.03,4-1.1.4-2.24.63-3.42.66-2.81.07-5.63.21-8.44.18-1.96-.02-3.91-.25-5.86-.42-1.87-.16-3.73-.4-5.6-.53-1.31-.09-2.61.08-3.89.41-.13.03-.27.04-.41.05,0-.07-.02-.1,0-.12,1.45-2.1,2.83-4.24,4.81-5.93,2.5-2.14,5.4-3.33,8.58-3.92,3.27-.61,6.56-.49,9.86-.31,4.34.24,8.45,1.39,12.45,3.01,1.03.41,2.08.76,3.12,1.14.29.1.57.21.85.47-.17.02-.35.06-.52.06-4.69.13-9.38.26-14.07.39-.77.02-1.54.03-2.3.07-3.72.16-7.44.27-11.16.52-1.66.11-3.31.52-4.96.8-.18.03-.35.12-.52.18.01.03.02.07.03.1Z"/>
        <path class="cls-4" d="M181.36,108.37c-.14.8-.2,1.54-.41,2.23-.88,3.01-1.34,6.1-1.92,9.18-1.15,6.15-2.16,12.32-3.4,18.44-.91,4.51-2.51,8.79-4.98,12.71-.45.72-.99,1.39-1.45,2.1-.3.47-.79.48-1.28.65-.03-.27-.07-.49-.07-.71,0-2.96-.1-5.92.05-8.86.11-2.32.47-4.63.82-6.94.71-4.76,1.71-9.46,3.26-14.01,1.1-3.23,2.43-6.37,4.27-9.27,1.3-2.06,2.86-3.89,4.79-5.39.06-.05.15-.06.32-.14Z"/>
        <path class="cls-4" d="M161.9,164.65c-.37.63-.69,1.18-1.01,1.74.04.03.08.05.12.08.34-.5.68-.99,1.01-1.49.33-.5.7-.96,1.42-1.09.01.54.02,1.03.03,1.53.05,0,.11.01.16.02.06-.36.13-.73.18-1.09.09-.64,1.13-1.42,1.74-1.27.15.04.29.17.4.29.47.53.96,1.05,1.39,1.61.65.86.98,1.84,1.03,2.93.09,1.77-.29,3.44-.96,5.07-2.26,5.53-8.22,8.62-12.4,8.76-1.06.04-2.12.05-3.12-.33-.66-.25-1.31-.56-1.87-.98-.83-.63-1.25-1.52-1.28-2.58-.03-1.25.28-2.43.82-3.54,1.25-2.57,3.11-4.59,5.49-6.17.1-.07.24-.09.46-.16-.63,1.09-1.23,2.07-1.78,3.08-.54,1-.99,2.04-1.08,3.21.21-.5.42-1,.62-1.51.66-1.68,1.57-3.22,2.65-4.65.12-.16.24-.34.4-.44,1.68-1.05,3.21-2.37,5.16-2.96.1-.03.21-.04.41-.07Z"/>
        <path class="cls-4" d="M182.58,110.76c.58,3.31,1.24,6.5,1.66,9.73.53,4.08.07,8.12-1.07,12.06-1.16,3.99-2.78,7.81-4.77,11.47-.05.1-.13.18-.24.34-.32-.32-.62-.6-.9-.89-.36-.37-.78-.18-1.2-.21-.48-.03-.85.02-1.14.46.23-.73.48-1.45.7-2.18.88-2.85,1.5-5.77,2.03-8.7.6-3.3,1.04-6.62,1.69-9.9.74-3.73,1.54-7.45,2.69-11.08.09-.27.19-.54.29-.8.03-.07.1-.12.25-.29Z"/>
        <path class="cls-4" d="M149.96,181.6c-1.4.25-2.55.93-3.73,1.56-1.18.63-2.28,1.37-3.31,2.24-1.02.86-1.58,2.08-2.55,3.18-.16-.94.46-1.43.66-2.22-.9.66-1.16,1.55-1.47,2.43-.52-.17-.77-.52-.89-.92-.13-.46-.25-.95-.21-1.42.28-3.32,1.18-6.45,3.3-9.08,2.52-3.12,5.42-5.83,9.07-7.62,1.14-.56,2.27-1.12,3.45-1.6-1.18.87-2.19,1.89-3.14,2.98-1.21,1.4-2.05,3-2.52,4.79-.5,1.93-.22,3.72,1.09,5.29.08.1.14.23.24.39Z"/>
        <path class="cls-4" d="M156.92,151.75c-.08-.26-.1-.47-.21-.63-.37-.53-.76-1.06-1.18-1.56-1-1.2-2.04-2.36-3.03-3.58-.77-.96-1.68-1.67-2.88-2.02-.67-.19-1.16-.58-1.32-1.36,1.39-.85,2.78-1.7,4.23-2.58.21.39.42.85.69,1.28,1.13,1.84,2.28,3.66,3.4,5.51,1.89,3.11,3.6,6.31,5.13,9.61.33.71.67,1.42.96,2.17-.73-.36-1.49-.56-2.11-1.15-.8-.75-1.72-1.39-2.63-2.02-2.59-1.76-5.04-3.69-7.28-5.89-.71-.69-1.47-1.34-2.19-2.02-.24-.23-.47-.5-.64-.79-.1-.17-.15-.46-.08-.64.24-.57.55-1.1.84-1.65.76.08,1.33.43,1.79.88,1.08,1.05,2.12,2.13,3.15,3.23.75.81,1.44,1.68,2.17,2.52.28.32.59.61,1.19.67Z"/>
        <path class="cls-4" d="M154.26,138.7c2.17.36,4.19.94,5.44,2.93.56.89,1.08,1.81,1.48,2.78.92,2.23,1.78,4.49,2.64,6.74.63,1.66.9,3.4,1.17,5.15-.76-.29-1.41.15-2.23.2-.88-1.45-1.86-2.95-2.72-4.51-1.34-2.41-2.63-4.84-3.88-7.29-.67-1.31-1.22-2.69-1.78-4.05-.24-.59-.4-1.23-.1-1.95Z"/>
        <path class="cls-4" d="M149.83,128.53c-.39.51-.68.99-1.06,1.39-1.22,1.29-2.57,2.44-4.26,3.04-1.37.49-1.92,1.49-2.14,2.8-.04.21-.13.41-.19.61l-.19.02c-.09-.27-.24-.54-.27-.82-.1-.95.08-1.88.47-2.74.15-.32.41-.62.67-.86,1.15-1.02,2.32-2,3.47-3.01.73-.64,2.59-.95,3.5-.45Z"/>
        <path class="cls-4" d="M129.91,122.81c-.29.14-.49.25-.69.34-1.04.45-1.88,1.12-2.49,2.1-.24.38-.61.67-.9,1.01-.43.52-.88,1.03-1.25,1.59-.46.71-.85,1.47-1.23,2.23-.22.43-.36.89-.55,1.33-.09.21-.22.41-.33.63-.6-.28-.66-.73-.66-1.19-.01-1.51.51-2.83,1.43-4.01.35-.45.78-.83,1.15-1.26.59-.69,1.2-1.36,1.72-2.09,1.06-1.48,2.09-1.72,3.81-.68Z"/>
        <path class="cls-4" d="M199.31,132.34c-.43.16-.78.29-1.13.42-.04.04-.07.07-.09.08-2.63,1.71-5.06,3.66-7.26,5.9-.84.85-1.69,1.69-2.55,2.51-2.63,2.52-5.33,4.96-7.68,7.75-.32.38-.63.77-1,1.22,1.05-.02,1.98-.08,2.9-.06,1.67.05,3.29.35,4.71,1.29,1.63,1.08,2.4,2.61,2.36,4.61-.11-.05-.14-.05-.15-.07-.08-.21-.16-.42-.24-.63-.58-1.49-1.35-2.85-2.81-3.62-2.41-1.28-4.96-1.53-7.5-.52-2.59,1.02-4.8,2.68-6.79,4.62-.38.37-.67.84-1,1.27,2.23-1.05,4.43-1.9,6.92-1.6-.26.08-.53.14-.81.15-2.15.11-4.11.82-5.99,1.8-.74.38-1.36.89-1.84,1.59,1.63-.17,3.22-.33,4.81-.5-1.59.34-3.18.65-4.77.95-.43.08-.79.26-.98.75,1,.21,1.98.37,2.93.62,1.18.3,2.14.94,2.43,1.53-1.99-1.18-4.59-1.78-5.98-1.36.06.1.11.2.18.28,1.07,1.24,2.38,2.2,3.82,2.94.8.41,1.67.79,2.54.93,3.18.5,6.15-.07,8.86-1.91,2.72-1.85,5.12-4.06,7.34-6.47,2.62-2.85,4.83-5.94,5.99-9.71.56-1.82.99-3.61.71-5.52-.08-.56-.11-1.13-.23-1.69-.36-1.66.05-3.14.92-4.55.39-.63.72-1.29,1.07-1.93,0,0-.01.02-.02.02.05-.18.11-.36.16-.54.05-.15.1-.31.18-.54Z"/>
        <path class="cls-4" d="M198.97,133.44c.06-.19.11-.37.17-.56.05-.15.1-.31.18-.54-.43.16-.78.29-1.13.42.48-.32.96-.64,1.44-.96-.02.68-.25,1.2-.65,1.63Z"/>
      </g>
    </g>
  </g>
</svg>